/* XPM */
static char *_1b0e41cfd2b4b26c676bf0d539f8c6aW01VSNzQ7UZk2exx[] = {
/* columns rows colors chars-per-pixel */
"32 32 198 2 ",
"   c #030104",
".  c #0B0005",
"X  c #000807",
"o  c #02020B",
"O  c #0B020B",
"+  c #060A0B",
"@  c #120007",
"#  c #13010B",
"$  c #1A000D",
"%  c #0D0111",
"&  c #150214",
"*  c #1C0214",
"=  c #190916",
"-  c #16071E",
";  c #27000F",
":  c #2A000F",
">  c #220215",
",  c #2A0016",
"<  c #250018",
"1  c #370019",
"2  c #4C5E68",
"3  c #525E6E",
"4  c #6C4F61",
"5  c #744E66",
"6  c #784E64",
"7  c #754B6A",
"8  c #784B6A",
"9  c #784468",
"0  c #695C66",
"q  c #6D576C",
"w  c #6B5F6B",
"e  c #735064",
"r  c #7A556D",
"t  c #715A6E",
"y  c #665872",
"u  c #7B5C76",
"i  c #7E5A7A",
"p  c #755872",
"a  c #506169",
"s  c #4D7076",
"d  c #527174",
"f  c #636679",
"g  c #776571",
"h  c #923D66",
"j  c #9C3D69",
"k  c #8C4E67",
"l  c #8E436E",
"z  c #834D6B",
"x  c #9D476A",
"c  c #944B6B",
"v  c #9A486E",
"b  c #92466A",
"n  c #865067",
"m  c #854170",
"M  c #874B73",
"N  c #9D4A74",
"B  c #825372",
"V  c #845B73",
"C  c #8B5A78",
"Z  c #875777",
"A  c #925579",
"S  c #9B547D",
"D  c #A0446D",
"F  c #A64674",
"G  c #A44877",
"H  c #AD4373",
"J  c #AC547E",
"K  c #836076",
"L  c #83607E",
"P  c #8A6078",
"I  c #95687D",
"U  c #766681",
"Y  c #8C5E82",
"T  c #945A80",
"R  c #9A5C87",
"E  c #BA4D84",
"W  c #A25386",
"Q  c #A45A81",
"!  c #AA5C80",
"~  c #A75289",
"^  c #AB508B",
"/  c #A75B8C",
"(  c #AC5D8C",
")  c #B35B87",
"_  c #B15588",
"`  c #B25D8C",
"'  c #BA5E8D",
"]  c #AA5691",
"[  c #AE5C94",
"{  c #A55C91",
"}  c #B95790",
"|  c #BE5B94",
" . c #B45C96",
".. c #8D6483",
"X. c #896981",
"o. c #866485",
"O. c #906485",
"+. c #9C6181",
"@. c #956887",
"#. c #996885",
"$. c #96668C",
"%. c #9D658C",
"&. c #95688A",
"*. c #9F6A8C",
"=. c #8D7489",
"-. c #97748A",
";. c #9B7189",
":. c #9B6392",
">. c #977294",
",. c #9D7194",
"<. c #A26283",
"1. c #A26D87",
"2. c #A2628E",
"3. c #A4698C",
"4. c #A86C8E",
"5. c #B3678E",
"6. c #A56390",
"7. c #A26A92",
"8. c #AB6894",
"9. c #AE6199",
"0. c #AB6692",
"q. c #B36496",
"w. c #BD6097",
"e. c #B6659C",
"r. c #B66A9B",
"t. c #A07297",
"y. c #B07797",
"u. c #C0508B",
"i. c #C85692",
"p. c #C57C9A",
"a. c #A18A9C",
"s. c #989CA7",
"d. c #B68CA2",
"f. c #BE93AC",
"g. c #C193AF",
"h. c #C893AF",
"j. c #FEDDF6",
"k. c #FFDBFD",
"l. c #E0EFE8",
"z. c #EEF0EF",
"x. c #F2F1EF",
"c. c #FCF6EB",
"v. c #FFFEEE",
"b. c #F2FAED",
"n. c #F7EEF3",
"m. c #F9EFF3",
"M. c #FFE3FE",
"N. c #FEEBFF",
"B. c #ECF4F4",
"V. c #EDFAF5",
"C. c #EFF6FC",
"Z. c #EDFDFB",
"A. c #F4F4F5",
"S. c #FBF4F4",
"D. c #F4FCF6",
"F. c #FDFDF4",
"G. c #F5F6F9",
"H. c #FEF5FC",
"J. c #F5FEFD",
"K. c #FFF9FC",
"L. c #FFFBFD",
"P. c #FFFAFC",
"I. c #FFF9FF",
"U. c #FFF8FF",
"Y. c #FCFAFF",
"T. c #FFFAFF",
"R. c #FFFBFF",
"E. c #FFFAFE",
"W. c #FDFBFC",
"Q. c #F9FFFD",
"!. c #FBFFFD",
"~. c #FBFDFF",
"^. c #F8FFFF",
"/. c #F9FFFF",
"(. c #F8FFFE",
"). c #FBFFFE",
"_. c #FAFFFF",
"`. c #FBFFFF",
"'. c #FAFFFE",
"]. c #FFFCFD",
"[. c #FCFEFD",
"{. c #FFFEFD",
"}. c #FCFCFF",
"|. c #FFFDFE",
" X c #FFFCFF",
".X c #FFFDFF",
"XX c #FEFCFF",
"oX c #FDFFFE",
"OX c #FDFEFF",
"+X c #FCFFFF",
"@X c #FEFEFE",
"#X c #FEFEFF",
"$X c #FFFEFF",
"%X c #FEFFFF",
"&X c white",
"*X c #FDFDFD",
"=X c #FDFDFD",
"-X c #E6E7F9",
/* pixels */
"}.}.}.}.!.!.R.}.!.!.}.}.}.}.}.}.Q.Q.!.!.!.Q.J.J.!.!.}.}.!.!.J.J.",
"}.}.R.}.!.!.}.}.J.J.}.}.}.!.}.}.Q.!.}.}.}.!.!.!.!.!.}.}.}.}.!.!.",
"R.R.R.}.J.J.}.}.J.J.!.!.J.J.}.}.!.}.}.R.}.}.}.!.!.!.}.R.K.K.[.[.",
"R.R.R.}.J.J.}.}.!.!.!.!.J.J.}.}.}.}.R.R.R.R.}.!.!.}.R.K.K.K.[.[.",
"}.}.R.}.J.J.}.R.}.}.}.}.J.!.}.R.R.R.U.U.R.R.}.!.!.}.R.R.R.[.}.Q.",
"!.}.}.}.!.!.R.R.R.R.R.}.!.!.}.R.R.R.K.R.}.}.}.}.}.}.}.}.}.}.!.J.",
"J.!.!.}.}.}.R.R.R.R.R.}.!.J.!.!.Q.F.F.[.[.}.}.}.}.!.!.!.J.J.J.J.",
"J.!.!.}.}.R.R.K.R.}.R.}.!.J.J.J.Q.D.F.Q.}.}.}.}.!.!.J.J.J.!.!.!.",
"}.A.}.}.G.}.G.!.!.V.!.}.Y.}.J.J.!.}.H.}.}.G.!.!.!.G.}.Y.R.}.}.!.",
"}.}.D.}.}.z.!.J.J.!.!.R.O & % O & O * O R.U.!.V.J.!.S.S.}.S.[.[.",
"R.H.}.G.}.}.J.J.B.R.# # f.y.4.%.%.%.6.M < & R.J.Z.J.[.F.F.F.c.F.",
"H.R.H.}.!.!.J.!.U.* 4 f.+.5.' _ [ 9.[ W m B & H.J.l.Q.F.F.F.v.v.",
"R.R.}.}.!.G.B.}.; n d.P *.Q E i.^ e.] q.r.M 8 # R.!.V.D.b.F.F.c.",
"}.U.R.}.V.J.!.. k p.;.H.N.*.| u.w./ R k.k.&.C B $ #   !.!.D.[.[.",
"H.}.R.B.J.Z.G.@ c p.M.J.Z.-X%.` ) S U.J.Z.!.5 1 ! ! h.# Y.J.!.C.",
"J.}.}.!.J.J.!.$ x h U.2 s J.$.( ` 3.H.a d Z.* z ) ) Q g.% !.J.J.",
"Q.Q.Q.Q.!.J.G.* D F j.f 3 H./ } ` 6.M.y f Y.- 7 z <.<.z $ R.!.J.",
"V.D.[.A.}.}.J.& h G O.N.H.o.[ |  .{ :.M.H.U & u r #.1.I $ U.G.J.",
"[.A.H.n.R.}.X o A l 9 i >.t.2.W ~ e.2.7.&.L u * V 6 6 > U.R.!.J.",
"G.}.}.R.R.  s.% 7 T k.,...$.%.8.q.S 0.3.9 k.r r * > $ H.S.Y.!.V.",
"}.}.Y.H.# a.=.X.< 7 M.i M.Y 7.R 3.3.%.M.B M.K @ H.S.}.!.!.J.J.J.",
"}.A.}.}.. -.Z <.A , V p k.i M.@.X.N.r j.V e # R.}.!.J.J.J.J.J.J.",
"U.}.!.G.= V J H j N : > p q N.t w }.0 g . # R.H.Y.V.J.J.V.!.G.D.",
"R.}.J.!.R.> b j v c z r % o O       +   R.H.H.}.!.!.!.G.!.}.H.}.",
"}.A.}.J.Z.J.& . O O . O }.J.R.}.}.!.}.}.}.}.R.R.K.K.}.K.R.R.R.R.",
"G.}.K.}.J.J.G.!.Z.J.}.D.G.!.G.F.[.[.}.}.}.}.}.}.R.K.R.R.R.S.H.H.",
"V.!.S.K.D.B.}.D.J.J.A.}.Q.D.K.R.R.}.[.[.[.Q.}.}.K.}.S.S.}.}.}.}.",
"D.F.H.R.}.}.}.Q.J.J.}.}.D.Q.[.S.}.}.}.}.!.!.!.}.}.A.}.}.G.G.J.J.",
"F.[.S.K.Q.Z.B.!.}.D.}.m.}.}.x.}.}.}.}.!.J.J.!.!.!.G.A.G.!.J.Z.J.",
"S.S.}.}.!.V.!.G.}.}.H.}.}.Q.}.A.}.}.}.}.}.!.!.!.!.}.}.A.!.!.V.J.",
"!.J.!.G.G.}.  O   +   +     + X                       }.R.A.}.K.",
"Z.J.J.!.R.R.U.R.}.  +   +   X         . . .     R.}.}.}.m.R.R.R."
};
