/* XPM */
static char *b8b57e554b6248f6a2484ea4cfddeb7b[] = {
/* columns rows colors chars-per-pixel */
"32 32 132 2 ",
"   c None",
".  c #231E22",
"X  c #242225",
"o  c #2B2D31",
"O  c #343334",
"+  c #393537",
"@  c #3C3837",
"#  c #34363A",
"$  c #373A3F",
"%  c #3D3C3E",
"&  c #3D3E42",
"*  c #413F40",
"=  c #3C4043",
"-  c #434244",
";  c #484647",
":  c #43454A",
">  c #4B4748",
",  c #474A4F",
"<  c #4B4B4D",
"1  c #514C4C",
"2  c #54504F",
"3  c #444B51",
"4  c #4A4D52",
"5  c #504F54",
"6  c #4C5054",
"7  c #4F565C",
"8  c #545354",
"9  c #585756",
"0  c #54555A",
"q  c #595A5D",
"w  c #615D5E",
"e  c #646364",
"r  c #626569",
"t  c #61696C",
"y  c #6C6B6B",
"u  c #666D75",
"i  c #6B757E",
"p  c #757575",
"a  c #777779",
"s  c #74797D",
"d  c #7B7A7B",
"f  c #827D7E",
"g  c #747E87",
"h  c #7F7E80",
"j  c #7B8086",
"k  c #7C858C",
"l  c #838383",
"z  c #81868C",
"x  c #898788",
"c  c #878A8F",
"v  c #8B8B8B",
"b  c #8E979E",
"n  c #959595",
"m  c #92959C",
"M  c #9B9798",
"N  c #9B9B9A",
"B  c #959DA3",
"V  c #9E9EA0",
"C  c #959FA8",
"Z  c #A19FA0",
"A  c #9AA1A7",
"S  c #9BA5AD",
"D  c #9FA8AF",
"F  c #A3A3A3",
"G  c #ACACAC",
"H  c #B4B0AD",
"J  c #AAB2B9",
"K  c #B3B2B2",
"L  c #B3B7BC",
"P  c #B1B8BE",
"I  c gray73",
"U  c #C1BCB9",
"Y  c #C4C0BF",
"T  c #ACB9C2",
"R  c #B2BAC1",
"E  c #BCC0C3",
"W  c #B6C3CC",
"Q  c #BBC5CD",
"!  c #BFCCD5",
"~  c #C6C6C6",
"^  c #C4C6C9",
"/  c #CCCCCD",
"(  c #D3CFCF",
")  c #D4D0CE",
"_  c #C4CCD4",
"`  c #CED1D4",
"'  c #C6D0D9",
"]  c #CDD5DB",
"[  c #D5D5D5",
"{  c #D8D6D8",
"}  c #D7DADF",
"|  c #DADADB",
" . c #CCDAE4",
".. c #D3DCE3",
"X. c #D1DFE9",
"o. c #D7E0E7",
"O. c #D6E3EC",
"+. c #D9E4EC",
"@. c #D9E7F1",
"#. c #DDE9F3",
"$. c #E3E2E1",
"%. c #E9E5E2",
"&. c #E0E7ED",
"*. c #E4EAEE",
"=. c #E3ECF3",
"-. c #E2EFF9",
";. c #EDF2F6",
":. c #E6F0F9",
">. c #EBF5FD",
",. c #EFFCFF",
"<. c #F5F3F4",
"1. c #F4F2F3",
"2. c #F0F9FF",
"3. c #F1FBFF",
"4. c #F2FBFF",
"5. c #F4F9FD",
"6. c #F3FCFF",
"7. c #F5FDFF",
"8. c #F7FEFF",
"9. c #F9F9F9",
"0. c #FFFEFB",
"q. c #FCFBFC",
"w. c #F8FEFF",
"e. c #F9FEFF",
"r. c #F8FFFF",
"t. c #FBFFFF",
"y. c #FFFFFC",
"u. c #FDFEFF",
"i. c #FCFFFF",
"p. c #FDFFFF",
"a. c #FEFFFF",
"s. c white",
/* pixels */
"                                e.    i.0.          3.e.        ",
"                              =.=.*.i.$.%.i.    6.-._ 3.e.      ",
"                            ..=...Q i.` / i.i.5.=.@.#...8.      ",
"                            R +.O...8.e.i.` *.*.#.-.O. .=.      ",
"                            R ..@.X.' B e.;.&.=.-.#. .@.e.i.9.  ",
"                            J +.-.O.Q S e.>.o.#.@. .X.O.3.s |   ",
"                            D -.O.>.,.:.=.=.+.#.! W T +.P E | q.",
"                            J +.O.#.S =...] ] B C g 3 6 6 < 8 <.",
"                          z u k i b S ..A t j 4 0 7 4 $ : e < 1.",
"                          ` B J _ R L r 6 4 o q 8 o 8 9 9 > K   ",
"                    % G   c m : } L , = # - 4 6 q y e y 9 Y     ",
"                    * ; q q 0 0 O < $ q q 8 p 9 8 y 9 2 @ (     ",
"                    O 9 8 < 5 8 q < 9 8 - & p < 8 8 1 H         ",
"                h > e 8 - - X 0 * 9 V a & : < % - N U           ",
"              F ; > d f 1 + . + < [ 1.| / ^ ~ ~                 ",
"          r # o X w   ) M f + X e { a                           ",
"          a ; - v   / y Z x + 9     / F                         ",
"            l G F   ~ x F G y a                                 ",
"              F M N K M a /   N                                 ",
"            F   F M v 8 v     ~                                 ",
"              G l a   F K       e                               ",
"            M v   a   F G       e                               ",
"          I     l               d                               ",
"        K [ I F       v                                         ",
"      $.~   I       n                                           ",
"    | G             e                                           ",
"    / F                                                         ",
"    ~                                                           ",
"  [                                                             ",
"  I                                                             ",
"                                                                ",
"                                                                "
};
