/* XPM */
static char *shamrock_coin_black[] = {
/* width height num_colors chars_per_pixel */
"32 32 8 1",
/* colors */
"  c #000000",
". c #F5A700",
"+ c #FFC219",
"@ c #EB9500",
"# c #FFFFFF",
"$ c #D88700",
"& c #FFD44D",
"* c #C47800",
/* pixels */
"                                ",
"         ...++++++++...         ",
"       ..+++&&&&&&&&+++..       ",
"      .+++&&&&&&&&&&&&&++.      ",
"     .++&&&&&&&&&&&&&&&&++.     ",
"    .++&&&&&&&&&&&&&&&&&&&+.    ",
"   .+&&&&&#&&&&&&&&&&&&&&&&+.   ",
"   .+&&&&&&&&&&&&&&&&#&&&&&+.   ",
"  .++&&&&&&&&&@@@@@@&&&&&&&&@.  ",
"  .+&&&&&&@@@@......@@&&&&&&@.  ",
"  .+&&&&&@............@&&&&&@.  ",
"  .+&&&&@....@@@@@@....@&&&&*.  ",
"  .+&&&&@...@&&&&&&@...@&&&&*.  ",
"  .+&&&&@...@&&&&&&#...@&&&&*.  ",
"  .+&&&&@..@&&&&&&&&&..@&&&&*.  ",
"  .+&&&&@..@&&&&&&&&&..@&&&&*.  ",
"  .+&&&&@..@&&&&&&&&&..@&&&&*.  ",
"  .+&&&&@...@&&&&&&@...@&&&&*.  ",
"  .+&&&&@...@&&&&&&@...@&&&&*.  ",
"  .+&&&&@....@@@@@@....@&&&&*.  ",
"  .+&&&&&@............@&&&&&*.  ",
"  .+&&&&&&@@@@....@@@@&&&&&$*.  ",
"  .+&&&&&&&&&&&&&&&&&&&&&$$*@.  ",
"  .+&&&&&&&&&&&&&&&&&&&&$$$*@.  ",
"   .+&&&&&&#&&&&&&&&&&&$$$*@.   ",
"   .+&&&&&&&&&&&&&&&&$$$$*@*.   ",
"    .+&&&&&&&&&&&&&&$$$**@*.    ",
"     .++&&&&&&&&&&&$$$**@*.     ",
"      .+++&&&&&&&&&$$**@@.      ",
"       ..+++&&&&$$$$$@@..       ",
"         ...@@@@@@@@...         ",
"                                "
};