/* XPM */
static char *_ba158d0d4e3460ae771d54dc1ef3aceN3D4w8vTgPJpx17A[] = {
/* columns rows colors chars-per-pixel */
"32 32 85 1 ",
"  c #195F06",
". c #176006",
"X c #1D6405",
"o c #1F6A05",
"O c #216706",
"+ c #226C06",
"@ c #216B08",
"# c #3D6D07",
"$ c #3D6D09",
"% c #267206",
"& c #297606",
"* c #2D7B06",
"= c #297508",
"- c #2E7B08",
"; c #317E06",
": c #337E09",
"> c #407106",
", c #46770A",
"< c #477C08",
"1 c #4B7E08",
"2 c #338306",
"3 c #398506",
"4 c #378906",
"5 c #3B8C06",
"6 c #338208",
"7 c #3B8609",
"8 c #378808",
"9 c #3A8B08",
"0 c #3D9107",
"q c #3F9108",
"w c #418605",
"e c #438C07",
"r c #4C8208",
"t c #438C0A",
"y c #4A8D0A",
"u c #4C9506",
"i c #449109",
"p c #4C9509",
"a c #4F9F0A",
"s c #549505",
"d c #5C9B06",
"f c #5C9508",
"g c #549D0C",
"h c #5C9C0B",
"j c #569A11",
"k c #629D0C",
"l c #5EA00B",
"z c #61A10C",
"x c #68A40E",
"c c #6CAA09",
"v c #6EB308",
"b c #72B011",
"n c #DB8D07",
"m c #DC8D09",
"M c #DD9006",
"N c #DE9309",
"B c #E08F08",
"V c #E3920A",
"C c #E9970D",
"Z c #F09A0F",
"A c #EF9D13",
"S c #F29E10",
"D c #F49F11",
"F c #F09E14",
"G c #F59F14",
"H c #F3A012",
"J c #F5A012",
"K c #F4AF16",
"L c #EFB015",
"P c #F3B216",
"I c #F5B015",
"U c #F5B515",
"Y c #F5BA16",
"T c #F7BE17",
"R c #F9BF16",
"E c #F9BE18",
"W c #FCBF19",
"Q c #F9BE1C",
"! c #FAC017",
"~ c #FBCF56",
"^ c #F8C367",
"/ c #FAD261",
"( c #FCF5D9",
") c #FFFBF0",
"_ c white",
/* pixels */
"86+&4;++&@+8q6-;d*O++*66%%sy*;-;",
"*;;2pd++%+o6JDJVVJGJX+&&+%ds6*&2",
"&866ih+&6SmJJJJnnJJJJnH%X+ty% O&",
".o-5es&<JJJnRREEEEERDnJJ#X&8.+22",
"&+%3tcDJJDREEIAAAAPEEEDJJDxp&+e8",
"4hdgbCJJRERAEEEEEEERARERJJCszzd8",
"%-+ DJnE~_TEEEEEEEEEEEAEEnJD;&-%",
"26X$JDEEAREEEEREEEEEEEEAEEJJ>&52",
";++JJREAEEREnBSnEnnnLEEEAERJJ256",
"%XSDDEAEEEERJJJJEJJJnEEEEAE^JS6&",
"2*nnEREEEEERJJDJDJJJJREEEEE(Dn. ",
";iJDEAEEEREEJDJJJJJJDEEEEEAEnJ26",
";DJTER)_QEEEDJJJJJJHnEEEEETEEJD8",
"XJJEIEEEEEEEEJJJJJJJEEREE!EIEJJ5",
"XJJEAEEEnJJJDYJJJJJEEEEEREEAEJJ4",
"3VnEAEEnJJJJDJHJJJJJJJVREEESEnV0",
"uVn!AERnJJJJJJJJDJJJDGJJnEEAEMVg",
".JJEAEEnGJJJGJJJJHHJJJJJnEEAEJJ6",
"+JJEKE!EnJDJJJJJJJGJJJJJmEEIEJJ;",
"&DJREREEEnJJJJDEDJJJJJJnMETEEDD+",
"+-JnEAEEEMJHJJDEZJGGJnREEEAEDD%&",
"+3nJRREREnDJJJEERJJJJSEEEERRnn&8",
"&&SJDEAEEnnJDREEECJJJnEEEAEDJS;6",
"8*-JJRRAEERUEEEEERnDnNEEFERJH%=2",
"66+rJJEEAEEREEREEEEREEEAEEJJ1&*6",
"%6-%DJnE/AEEEEEEEEEEEEAEEnJDo%&&",
"hhh-2CJJREEAREEWEEETARERJJCy-tlw",
"yy7hkkDJJDEEEIAAAAIEERDHDDvg+:9j",
"+%-9&z6fJJnDREREEEERnJJJ,%a5oX&8",
"%&&;*&62*SnGJJJnnJJGJnS9&+u9--*4",
"++&&*s%%X+&+DJDVVJJD-6+6+.y:&6-;",
"63228dXX. . +XXwd+4+6*+;X &%+X+o"
};
