/* XPM */
static char *beb10214486a4e66c6cd128b7e1f7a37WyZMLFSY0BCOhyE2[] = {
/* columns rows colors chars-per-pixel */
"32 32 102 2 ",
"   c #0A230E",
".  c #0C2711",
"X  c #0D2C13",
"o  c #0E3316",
"O  c #0E3916",
"+  c #0E3518",
"@  c #0F3B18",
"#  c #103516",
"$  c #103917",
"%  c #103718",
"&  c #113D1A",
"*  c #193B20",
"=  c #13431D",
"-  c #144A1E",
";  c #16501E",
":  c #154621",
">  c #194623",
",  c #154D21",
"<  c #194C24",
"1  c #1A4228",
"2  c #165322",
"3  c #195524",
"4  c #165A24",
"5  c #195B26",
"6  c #1C542B",
"7  c #1B5E29",
"8  c #1F5C30",
"9  c #22462C",
"0  c #24502F",
"q  c #215B2E",
"w  c #255130",
"e  c #295230",
"r  c #205A31",
"t  c #1B6227",
"y  c #1B622A",
"u  c #1B652A",
"i  c #1D672A",
"p  c #1D632D",
"a  c #1F642D",
"s  c #1C672C",
"d  c #1B692B",
"f  c #1D6B2C",
"g  c #1D6B2F",
"h  c #1F6D2F",
"j  c #1D722F",
"k  c #1D6130",
"l  c #1F6735",
"z  c #1E6930",
"x  c #1F6D31",
"c  c #1E7330",
"v  c #1D7430",
"b  c #20672F",
"n  c #206A2F",
"m  c #216D2F",
"M  c #21702F",
"N  c #236130",
"B  c #266433",
"V  c #256435",
"C  c #236831",
"Z  c #226F33",
"A  c #226B34",
"S  c #226D35",
"D  c #286834",
"F  c #286D36",
"G  c #25653A",
"H  c #2A643A",
"J  c #2D653E",
"K  c #276B38",
"L  c #276C3F",
"P  c #2B6A3D",
"I  c #2C6E3D",
"U  c #237133",
"Y  c #257131",
"T  c #227036",
"R  c #277237",
"E  c #257737",
"W  c #227935",
"Q  c #247935",
"!  c #277038",
"~  c #23773B",
"^  c #25753A",
"/  c #29743C",
"(  c #277939",
")  c #277C38",
"_  c #2D7B3F",
"`  c #2A7F3C",
"'  c #2E7E3F",
"]  c #34723F",
"[  c #33783F",
"{  c #297141",
"}  c #2C7645",
"|  c #2D7B41",
" . c #287348",
".. c #3C7747",
"X. c #3C7548",
"o. c #377D4B",
"O. c #3E7E4A",
"+. c #3B784C",
"@. c #3E7E4C",
"#. c #367651",
"$. c #28833D",
"%. c #4C805A",
/* pixels */
"5 & , 7 5 u 2 , - 5 - y 7 2 & o 2 , 2 - y 2 , u , - = % # , y 7 ",
"y y y 5 , A = , @ & 2 g , 4 2 = 2 - 7 , 2 5 - = , - 2 , 3 , & & ",
"y - $ & , ) = 2 2 2 - - - 5 7 2 = & r 7 3 = = + = $ - v h - X : ",
"2 , = - = } 4 , & , O & - 2 , , O - 7 = O o & 2 R 3 3 = = = + B ",
"2 2 5 - = { 5 3 = 5 2 , - , - = $ = 7 O O = - : N 5 y = = - + V ",
"( d ' 3 , a a S x $.` K - L 7 p , 2 ) @.O.j R J l y W C S ^ 4 ` ",
"g 2 $ & @ 6 - - O = 2 : - 3 O % , 2 p g g a u 2 6 2 7 y u 3 O < ",
"5 & O - - 8 - : % , y > 2 5 + $ - 3 n u y y 7 7 6 = 5 y y , = < ",
"X X o - 2 U X X - 2 2 3 5 4 - 5 % X ] - = = o - $ X & X % 7 5 3 ",
", & @ & - T o o o = , a i 3 3 u - & P o - , X o $ $ & . % 7 5 3 ",
"h 2 = - 2 _ X X + - o 3 2 - - + 5 3 3 $ & O = , Y + + o o o & D ",
"5 5 : = 3 ~ , = = - & - & & > > 7 y C g 3 & 7 M C * > 2 = & 7 p ",
"4 3 -      .= O = = X & & & , 5 4 7 T 7 3 $ - , 5 2 , , @ = a i ",
"= y h - % & . X 2 7 - 6 7 5 2 7 = , 2 5 - 2 - = M 7 3 & o O 7 E ",
"X $ 3 7 5 p & - 4 2 = - - = 3 4 = + 6 = - 2 , & > = 2 - $ = 5 g ",
"$ & 2 7 y ( 4 u 7 = . $ O o 3 y - + 6 & , 7 7 2 & = 7 2 = & , 2 ",
"3 7 - $ + % O - y 2 = - + - t 3 $ + H 5 & O - 2 , - 3 & = , & , ",
"= , - = $ > = - 2 5 2 = X , g 7 + + G , O = - 2 , - - - , y - , ",
"& G 3 7 , %.7 3 b z b & X 2 W U < : z I [ 7 - , y 3 3 G ! I 2 o.",
"- & $ 2 , 3 , = & $ 2 &   = 3 & = - 7 y 2 % $ = y = X = - + X 6 ",
", @ , , 2 g - , - @ 5 2 : 3 2 - - - y u , . $ - 5 = & = - % + 6 ",
"o o u 2 , d 2 7 2 & 3 h y 3 & = 2 , 3 , = o = = - - 2 , & X o 6 ",
"% & 7 - & X., , , $ 2 7 3 , & $ - 2 b + & 2 = % 7 2 < X + , + q ",
"$ & + . X ..= & = = = 6 3 c ; : 2 5 g = = o + , 7 = +   % 3 3 R ",
"0 w e 7 3 #.0 9 < , m y 3 , < = 2 y z = - k Z W 2 , < < 3 3 y ` ",
"2 , 2 , , / 3 , X $ 2 & & 2 & X - , a , - 5 5 = > = = & @ - 2 3 ",
"7 3 7 = - ( h g = = 7 % + 5 - $ & = b 5 5 7 , o H 3 , = & 5 u p ",
"u , 2 3 3 E 4 7 g a g 2 X + 2 3 o & p 5 2 , , - Z y 7 $ = 2 - - ",
"5 2 , 7 t j 3 3 g u 5 , X = 7 7 % = 7 3 2 , 3 = y 2 - $ = 5 = - ",
"& O X 2 5 t - = = , & , = 2 5 y - 3 m + o 5 -   1 + + o & d 5 3 ",
"= & = - 2 | X X o % , 7 - 2 & - $ = , & O = - O $ o $ & = , - = ",
"7 & - y u | : 6 - $ , < - 2 q = % = +.F 3 & 7 / 6 3 N 6 7 , - 5 "
};
