/* XPM */
static char *_970cc816e414b4e99e375ab41eac34afdaammqoAtqUjOXL[] = {
/* columns rows colors chars-per-pixel */
"32 32 79 1 ",
"  c #165F05",
". c #195F06",
"X c #1D6505",
"o c #1E6905",
"O c #1C6209",
"+ c #216705",
"@ c #226C06",
"# c #236E08",
"$ c #267206",
"% c #297506",
"& c #2D7B06",
"* c #267109",
"= c #2A7508",
"- c #2C7A08",
"; c #317706",
": c #317E06",
"> c #337C08",
", c #397C08",
"< c #2F8007",
"1 c #338306",
"2 c #3A8506",
"3 c #378806",
"4 c #3D8D06",
"5 c #338208",
"6 c #338308",
"7 c #348208",
"8 c #358508",
"9 c #368508",
"0 c #3B8208",
"q c #3C8309",
"w c #3B8508",
"e c #378808",
"r c #398808",
"t c #388908",
"y c #3D8A08",
"u c #3F8A09",
"i c #3A8D09",
"p c #3F8F08",
"a c #3F9007",
"s c #3E9604",
"d c #3E9008",
"f c #468705",
"g c #408906",
"h c #418F07",
"j c #448C06",
"k c #488E07",
"l c #4E8E04",
"z c #418609",
"x c #448908",
"c c #458A0B",
"v c #418F08",
"b c #458E09",
"n c #4A8D09",
"m c #409307",
"M c #469305",
"N c #469307",
"B c #429505",
"V c #469506",
"C c #4E9305",
"Z c #4E9606",
"A c #459906",
"S c #4A9A07",
"D c #499C06",
"F c #4E9D06",
"G c #429209",
"H c #449508",
"J c #4A9208",
"K c #4E970A",
"L c #4F920F",
"P c #4F970D",
"I c #44990A",
"U c #4B9908",
"Y c #4F9F08",
"T c #509C04",
"R c #52920A",
"E c #519B0A",
"W c #55A007",
"Q c #55AA07",
"! c #53A208",
/* pixels */
"3:@&::$@%@@pm6%@$%t@#%66-$%$%:&&",
"-::ttM#$*#@t%@69&9H%@@%%-%-%:=$y",
"%t699UX$6$9t*#-19:Kt&-6$$@@*$.o1",
"@O%96C6&$$&t$X%:%%&o$=$&$@&$@#19",
"$.#16Z66&:6t@#&%@$:XX@#&w@$%$#&:",
"&nlDY&-t4SMv:&y:LJF$zf=9Jx::xRlt",
"$&$@@&@$&%o+@$XX6%$%%@@-g6:-6%&&",
"::oo$t%%%$@%%$o#:##%%@#=z6e&%%9t",
":#@$$9-&@*1B:O$7%X;@:e6@@@=#@944",
"%X@o@y%$$%tt@X$&%@>$%%:$&#%=$:66",
"9%X--qXo#-%=X+$$@X;$%o$tH&&$@@OO",
"6H:>9Y:$=yt:#@%$2tp141&Ma$69:-yp",
":66:9T1$X@$:%@@$3ts9&@#$&$-6&#t4",
"@%$$%I96$$@79&$-t64%@o@#,%:t1O$H",
"Xo-%%3%%%%-$@-:-9-:@&&%6%$$#%%%G",
"#%96&y@@$#9$X-&%&%:%:$#%t-$@*t6p",
"#6:@X-@@#%:ti9-&&-J%%%%#b3:$%@$t",
"X-9$$V@@@@#19199-=k%=--%z66o@@@w",
",jVhJQ10<-J4vjHV6ytJty69Up4>;lPy",
"%#o9GA-#@@:9$#6&$6S9:@$@9966991:",
"$%X-69%@@@9G%@66-%t=--%$9--69&--",
"@6#$#%&:X#4h$o6i-@&@$$$-G%@%=@%v",
"-%-etm6:&X::o@%6&$0-%@O@t&-66$-t",
"3-:&:W%%&O%%%9-#&@*&&%@$%$%t3$%v",
"p60yt!,2hbp,,666MtCI99:ox69tt6:4",
"%&-$%M@#%1&--&-@o#h@&6%O:$%@@@%&",
"-&-$$2#$%&$t>6%o@%E@&9=#%%:@oX:%",
"$$@6-t-36%O#@6&$%:t$$-%#q9d$oX99",
"@#%1-b:t6%$$%-%$%:t#@-&%764%@X&y",
"%%%&=%69&@6t-# ot1tX%69t1#=%%&-b",
"##%&%t#$@@-%$%X@&&E#&6$9%X#@$6&9",
"yyvyyS$#@@$%$&$:--E$91$6$X@%=;--"
};
