/* XPM */
static char *a6cab2e09f174443f46ee7fbd0033c3caskl0GAfabtIyAgh[] = {
/* columns rows colors chars-per-pixel */
"32 32 219 2 ",
"   c None",
".  c #7A3904",
"X  c #6C221A",
"o  c #763E18",
"O  c #6B2E00",
"+  c #5A1C31",
"@  c #671E28",
"#  c #671E39",
"$  c #5E253B",
"%  c #712C2D",
"&  c #7F4C12",
"*  c #7D4D2A",
"=  c #521F5C",
"-  c #56194E",
";  c #54244B",
":  c #5A2557",
">  c #64225B",
",  c #652347",
"<  c #531E64",
"1  c #6B1A66",
"2  c #723473",
"3  c #843C00",
"4  c #813805",
"5  c #874816",
"6  c #985717",
"7  c #934E0A",
"8  c #AD571A",
"9  c #AA621D",
"0  c #B9681C",
"q  c #884923",
"w  c #8E5928",
"e  c #9B5D2B",
"r  c #914C3A",
"t  c #985938",
"y  c #A75D27",
"u  c #B35E37",
"i  c #AF5D2C",
"p  c #986538",
"a  c #9A713F",
"s  c #AB692B",
"d  c #AA6429",
"f  c #B76827",
"g  c #B87225",
"h  c #AC6432",
"j  c #A76739",
"k  c #B1633D",
"l  c #B96736",
"z  c #A4783E",
"x  c #B97538",
"c  c #C56B18",
"v  c #C87718",
"b  c #CA7310",
"n  c #C67828",
"m  c #C87939",
"M  c #C36D34",
"N  c #873259",
"B  c #975C43",
"V  c #974558",
"C  c #88484E",
"Z  c #A45D42",
"A  c #B05D44",
"S  c #A04D57",
"D  c #996945",
"F  c #8E6B4B",
"G  c #A46B44",
"H  c #A86647",
"J  c #B66646",
"K  c #A8724C",
"L  c #A86854",
"P  c #BA6759",
"I  c #BB7156",
"U  c #B0794B",
"Y  c #985665",
"T  c #89467B",
"R  c #A85364",
"E  c #B65D64",
"W  c #AD5C7E",
"Q  c #B05D79",
"!  c #A76662",
"~  c #B96764",
"^  c #BA7666",
"/  c #AD6175",
"(  c #B86A76",
")  c #BE727C",
"_  c #C6754B",
"`  c #C47A59",
"'  c #CB754B",
"]  c #C67868",
"[  c #CC7A7C",
"{  c #C96F79",
"}  c #B08034",
"|  c #D48316",
" . c #CB8003",
".. c #E19315",
"X. c #CA822C",
"o. c #D28333",
"O. c #DE9537",
"+. c #ED832D",
"@. c #BB8044",
"#. c #9D9272",
"$. c #AF8763",
"%. c #CD924D",
"&. c #C28B5B",
"*. c #D19352",
"=. c #E6974E",
"-. c #EA9C53",
";. c #E28E46",
":. c #D7986B",
">. c #DB8B79",
",. c #DE957F",
"<. c #CB8A6B",
"1. c #E4926E",
"2. c #E5947B",
"3. c #F5A879",
"4. c #EBA869",
"5. c #F2C17F",
"6. c #5F359A",
"7. c #69368A",
"8. c #723B8D",
"9. c #663A97",
"0. c #723699",
"q. c #693AA9",
"w. c #753CAA",
"e. c #6937B9",
"r. c #6B34AB",
"t. c #833A97",
"y. c #813A86",
"u. c #863DAA",
"i. c #913CA8",
"p. c #9E5384",
"a. c #9B489A",
"s. c #A55985",
"d. c #A95996",
"f. c #AD638C",
"g. c #AB6780",
"h. c #B86789",
"j. c #BC7889",
"k. c #AC649E",
"l. c #B86E95",
"z. c #BE7597",
"x. c #9B55AC",
"c. c #A35AAA",
"v. c #AC5EBB",
"b. c #AA66A6",
"n. c #B467A1",
"m. c #A664B8",
"M. c #B463BB",
"N. c #B768BA",
"B. c #BD77B5",
"V. c #B475AA",
"C. c #C26C82",
"Z. c #CA758B",
"A. c #CF7995",
"S. c #C577A9",
"D. c #9959C7",
"F. c #8B4BD6",
"G. c #8B54DB",
"H. c #9956D4",
"J. c #AD5DC9",
"K. c #9564CF",
"L. c #AA64C3",
"P. c #AB65D3",
"I. c #B362D7",
"U. c #B576C7",
"Y. c #9A6AE4",
"T. c #A669E1",
"R. c #A86AF9",
"E. c #BD83AC",
"W. c #D5878D",
"Q. c #DE978C",
"!. c #CD8496",
"~. c #D68997",
"^. c #C38588",
"/. c #E38C8D",
"(. c #E69782",
"). c #E89A9B",
"_. c #E99494",
"`. c #D6A78C",
"'. c #E7A587",
"]. c #FDAE86",
"[. c #F3A499",
"{. c #F2B196",
"}. c #D88AA7",
"|. c #CD8EB3",
" X c #D48AB8",
".X c #D796B6",
"XX c #DE9FAA",
"oX c #EC9CAC",
"OX c #E698A6",
"+X c #F39CA2",
"@X c #E698B9",
"#X c #E58FAC",
"$X c #DDA9B6",
"%X c #E9ABA3",
"&X c #F5A9AC",
"*X c #EBABB8",
"=X c #FAA7B7",
"-X c #F3B9B3",
";X c #F5C59F",
":X c #FFD6A4",
">X c #FBC0BC",
",X c #FFECB5",
"<X c #FFF3B9",
"1X c #FFEEAF",
"2X c #CA87C3",
"3X c #D689C7",
"4X c #DC92CE",
"5X c #E19CD4",
"6X c #E697C7",
"7X c #EBADC5",
"8X c #EEB4C6",
"9X c #F3B6C7",
"0X c #E5A6DA",
"qX c #F2B3D6",
"wX c #DD99E2",
"eX c #E3A5E5",
"rX c #FFF8DA",
"tX c #FFF6C8",
"yX c #FFF5E8",
/* pixels */
"                      yXD p U   rXD e p yX                      ",
"                    yXF K :Xw :X&.w :Xp F                       ",
"              B   rXF ,X<X4.-.-.-.-.5.<X,Xa                     ",
"            G j tXa 3.%.d l k J i h p p %.%.p   j               ",
"          #.z 1X9 =.d h H C ; : : , Y L f n *.6                 ",
"            $.s -.f J X $ ; 9.6.6.8.> # X _ m 4.s               ",
"              :.h ` , = 8.0.6.w.9.9.9.7.< $ I d                 ",
"            `.G ^ + 8.w.w.D.L.U.2XV.K.q.q.7.% Z G               ",
"            x k $ 7.r.G.D.c.f.^ :.] f.m.T.r.2 $ J               ",
"      ^ p :.l H = q.G.H.x.f.W.>.1.2./.S.P.Y.q.= P l             ",
"      K & y k @ 7.e.F.x.) (.}.f.k.f.2.Q.m.Y.e.0.@ k h o D       ",
"      *   x u % w.F.H.c.(.1./ b.m.b.I ,.b.T.R.0.C h y           ",
"          h 8 P t.F.D.2X/.J ! .Xn.n.( OXN.I.H.y._ 0 d           ",
"        D j m A 1 u.c.p.+XP ).g.n.4X( #XM.I.u.> '               ",
"    p o L     K Y T p.@XOXW.@Xk.v.N.) OXm.P.t.l.H       O D     ",
"    * p L     G ! C Q oX( h.d.M.L.b.( OXL.P.T Y G       G o     ",
"        % G e d I % V oX~ @XJ.J.4X~.^ OXI.i.% h x               ",
"            3 y u A S OXP oXv.v.h.[.I OXI.i.<.0 7 4             ",
"        :.s 9 3 0 _ R =X_ 3./ 6XC.[.3.'.N.a.u n 3 d             ",
"        p 7 . s c i V }.].].] oXC./.3.(.d.2 k 0 6 . U G         ",
"        D j   p 4 u N s.).] !.z.l.~.] [.s.}.A .                 ",
"                9 l W d.+X[ *Xz.V. X[ ).W j.k                   ",
"                9 l R h.&X~ -Xj.B.B.Z.=XQ R h                   ",
"                6 ' E h.Z.&X^.8XE.|.W.+XC.E l &                 ",
"                . M ~ Z.A.qX X|.-X<.{.>.{ E k                   ",
"                  ' ~ A.3X3X4X.X`.;X%X).Z.P J                   ",
"                  ` }.3XwXwX0X7X$X$X5X5X!.Q.G                   ",
"                  <.!.5XwXeXqX*X8XqXeX0XXX{.&.                  ",
"                z @.%X7X7X8X-X>X9X8X9X8X%X'.x                   ",
"                x g q r r ,.p j Z B t t q 5 g x                 ",
"                g v g m ;.o.X.X.o.o.O.v X.o.c x                 ",
"                g b v v v v v | | | .. .b b +.f                 "
};
