/* XPM */
static char *_f46d3b543024bf1f36d3768dd621367QMaEClYnNH7oEea6[] = {
/* columns rows colors chars-per-pixel */
"32 32 215 2 ",
"   c #422E0B",
".  c #78330A",
"X  c #6E3816",
"o  c #712A32",
"O  c #175D04",
"+  c #195E06",
"@  c #176006",
"#  c #1C6405",
"$  c #1F6A05",
"%  c #216406",
"&  c #236C06",
"*  c #226D08",
"=  c #376609",
"-  c #257206",
";  c #2A7506",
":  c #2D7B06",
">  c #2B7509",
",  c #2D7909",
"<  c #317E06",
"1  c #367608",
"2  c #337E08",
"3  c #5A4C17",
"4  c #6D4514",
"5  c #4A6A07",
"6  c #47740A",
"7  c #537E0A",
"8  c #68710F",
"9  c #647726",
"0  c #4D225C",
"q  c #512257",
"w  c #73225A",
"e  c #4F2362",
"r  c #522162",
"t  c #572268",
"y  c #50227C",
"u  c #7F2968",
"i  c #894A05",
"p  c #99490B",
"a  c #985307",
"s  c #8D4E12",
"d  c #93531A",
"f  c #A24D0A",
"g  c #A55706",
"h  c #B85906",
"j  c #BE5E0C",
"k  c #A65916",
"l  c #B65A16",
"z  c #BD5D13",
"x  c #9F6019",
"c  c #AE6208",
"v  c #B96309",
"b  c #BD610C",
"n  c #AB671E",
"m  c #BC6112",
"M  c #B7631B",
"N  c #BE701B",
"B  c #954B35",
"V  c #B75E26",
"C  c #946D22",
"Z  c #B26826",
"A  c #B46A30",
"S  c #C45F03",
"D  c #C15E0B",
"F  c #C65614",
"G  c #C05F12",
"H  c #C26705",
"J  c #C2630C",
"K  c #C56B0C",
"L  c #CA6C0D",
"P  c #CB710C",
"I  c #CB770E",
"U  c #D27607",
"Y  c #D4750E",
"T  c #D37B0C",
"R  c #C46A13",
"E  c #CB7412",
"W  c #CD7B17",
"Q  c #D47417",
"!  c #D37C11",
"~  c #AE684F",
"^  c #D07A79",
"/  c #338306",
"(  c #398506",
")  c #378906",
"_  c #3B8B06",
"`  c #338208",
"'  c #398609",
"]  c #3B8B08",
"[  c #3E9108",
"{  c #458907",
"}  c #438C09",
"|  c #4A8C0A",
" . c #4D9406",
".. c #469807",
"X. c #43930A",
"o. c #4C950A",
"O. c #4C9C0B",
"+. c #549405",
"@. c #5B9B06",
"#. c #579808",
"$. c #559B0B",
"%. c #5C9D0B",
"&. c #5F9E11",
"*. c #619E0C",
"=. c #748513",
"-. c #4EA20A",
";. c #57A209",
":. c #5CA20A",
">. c #61A20C",
",. c #6AA80A",
"<. c #6EB20A",
"1. c #72B00F",
"2. c #81BB11",
"3. c #879323",
"4. c #DA8C0E",
"5. c #D78416",
"6. c #DD9711",
"7. c #FC9305",
"8. c #FC9908",
"9. c #FD9D0B",
"0. c #E29F10",
"q. c #FC9815",
"w. c #FDA307",
"e. c #FCA50A",
"r. c #FCAA0C",
"t. c #FBAD18",
"y. c #FDB215",
"u. c #FCB918",
"i. c #EA932B",
"p. c #E89B34",
"a. c #FBB92B",
"s. c #EAA534",
"d. c #F5AB36",
"f. c #F9BB34",
"g. c #FCC81B",
"h. c #FAC220",
"j. c #FBC33A",
"k. c #AC9343",
"l. c #D48F4C",
"z. c #D59A59",
"x. c #E8985E",
"c. c #ECA643",
"v. c #F4B151",
"b. c #DD8E62",
"n. c #D68976",
"m. c #E8A462",
"M. c #F8C74B",
"N. c #EFC068",
"B. c #572586",
"V. c #5F2B9A",
"C. c #68268A",
"Z. c #6A278E",
"A. c #5D31BA",
"S. c #622FBC",
"D. c #6734B9",
"F. c #6132BC",
"G. c #6431C3",
"H. c #6C32C5",
"J. c #6A31C8",
"K. c #7633DB",
"L. c #8632AC",
"P. c #B56B90",
"I. c #A25BAB",
"U. c #B867AC",
"Y. c #B172AD",
"T. c #B764B7",
"R. c #C7748E",
"E. c #8937C9",
"W. c #8537EA",
"Q. c #953CEB",
"!. c #9757C4",
"~. c #8B4EDC",
"^. c #8C57DA",
"/. c #915BD5",
"(. c #A05ECC",
"). c #9A67DB",
"_. c #AC6EC3",
"`. c #B667C8",
"'. c #A562DC",
"]. c #BB6AD8",
"[. c #9444E7",
"{. c #944EEB",
"}. c #9857E6",
"|. c #A75CEB",
" X c #B05EEE",
".X c #A849F8",
"XX c #A55BF1",
"oX c #A959F4",
"OX c #B75CF8",
"+X c #8F62E3",
"@X c #9B66E2",
"#X c #9D64E2",
"$X c #A263E6",
"%X c #A262EC",
"&X c #AE60F2",
"*X c #B462F5",
"=X c #BA67F8",
"-X c #BD6AF9",
";X c #C167FC",
":X c #C677FA",
">X c #CD8D89",
",X c #C88A99",
"<X c #C69496",
"1X c #E4AE9B",
"2X c #CD8BA9",
"3X c #D68BAC",
"4X c #C78BB9",
"5X c #D182C4",
"6X c #C985F6",
"7X c #D388FB",
"8X c #D797FA",
"9X c #DBA4FC",
"0X c #DDA9F8",
"qX c #E2ADFD",
"wX c #E5B7F9",
/* pixels */
"' ` & ; ) < & & ; & & / X.l B < @.2 h s & , ` / - - +.| : < : : ",
", < : / o.@.& & - & $ M j % a d ( p 3 d h & ; > & - @.+./ : ; / ",
"; ' / ` X.%.& Z / - k z - 9 s.d.s.s.k.' , h / - n & } | - + & ; ",
"@ $ : _ } +.k v j 4 G s.b j j J j j j D i.8 v , z j ; ( @ & / / ",
"; & - ( ] ,.N ` 6 v j j z Z 0 q 0 0 o S j Y p.k ( b ,.o., & { ( ",
"] %.@.%.1.:.4 b 5.Y J B r e D.F.A.F.y 0 0 Y Y p.j x ;.$.>.>.@.( ",
"- , & O , ( * 1 L ! q r G.G.G.+X+XF.G.G.V.r Q G z./ -./ < ; : - ",
"/ ` # # ( ;.< m j q B.G.D.^./.<X2X<X#X).G.G.r v z & ;.o.& ; _ / ",
"< & $ - ,  .p.K B t G.~.^.!./.i.7.7.).).).G.S.e G D >.| & / _ / ",
"- # & # v F m Y r G.J.^.^.^.7.8.q.8.8.Y.).#XG.t V K C z A < / ; ",
"/ , # 5 b z j B V.J.~.~.,X8.8.(.4X#X^ 8.#X@XJ.G.e H J b J & @ @ ",
"< [ ; - 3 -.j b V.H.~.}.I.q.}.}.8.4X$X8.'.$X#XJ.V j l 7 & ; ` / ",
"< / / , / h k j t K.~.!.9.b.Y.e.|.9.XX9.U.$X%XC.Y J j [ ; & _ ' ",
"# ; > l.j z ` J j K.~.>Xe.{.x.XX|.'.|.w.T.$XK.~ U 5 . D p.= ; ] ",
"# + X l 2 _ : D D Z.[.,Xr._.e.XXXXXXU.e.'.$XK.j z & _  .= z - _ ",
"( } $.. D j l & U w W.n.r.2Xc.XXXXoX|.r.%XXXC.b G 8 z j p $.] [ ",
" .O._ _ X.5 k l b J W.n.t.P.|.oXR.b.oXr.%XW.p.j g h X ,.$.@.:.$.",
"+ ; _ : _ <.& . P E E.2Xt.d.oXoXoXt.`.y.&XW.Q Y g : 3.1 & & % / ",
"& : ( : | z.i m p m u Q.y.m.|.T.oXy.x.d.&XL.b J { z k b & / ' < ",
"; & # ; 8 -.D .   J Q Q.y. Xv.*X*Xt.].y.[.l.h . l d m b ` ( ( & ",
"& : # - / M . @ j P b .Xu. Xu.*X`.a.*Xu..Xp.J d : , M $.) , - ; ",
"& ( & ; - , < ; . R J .XT.>Xv.].m.f.=Xu..Xb J f ) : &  .> & ; ' ",
"; ; , ) ] ../ / > R J .X*Xu.-Xh.:X:X:Xu.oXJ J p ; < ( X., - : / ",
") , : / ' :.& , : R J OX-Xj.:X3Xh.:X5Xa.OXJ J 4 & & : >./ ; ; / ",
"/ / & : ] O.# - / R K ;X:X6XM.7Xj.g.g.6X-XH J % & ; ..} , ; , / ",
"- / , - , %.- # - K L :X7X7XN.8X8X8X8X8X:X5.L + # - _ - $ - ; ; ",
"%.%.%.: / >.@.&.X.K P 7X8X8X9XM.0X0X1X9X8Xs.H @.: +.2.| : } %.{ ",
"| | ' %.*.*.o.:.O.R c.8X9XqXqXwXwXwXqX0X9X1XP =., $.<.$.& 2 _ $.",
"& - : _ ; >./ X.6 K i a a n Z c c g g a a i L K & - O._ $ # - ( ",
"- ; ; < , > / / K T E E Y ! 5.6.5.5.0.T E 4.L K , &  ._ < < , ) ",
"& & ; ; , +.- - K W E E Q I ! 0.T ! 6.Y E E 5.R & @ | 2 ; ` : 2 ",
"/ ( / / ' @.# # @ + @ + & & # { @.& ) & / ; & : # @ - - & # & $ "
};
