/* XPM */
static char *dc06b445a9b54aadd33fa4737c25be90mjrEfpMTW8nMrA56[] = {
/* columns rows colors chars-per-pixel */
"32 32 235 2 ",
"   c #020202",
".  c #0A0203",
"X  c #020C04",
"o  c #0E0A04",
"O  c #03020A",
"+  c #0A040C",
"@  c #0B0B0C",
"#  c #120003",
"$  c #1A0003",
"%  c #15010A",
"&  c #150B0C",
"*  c #10150F",
"=  c #000216",
"-  c #090411",
";  c #070815",
":  c #16091A",
">  c #3C0E07",
",  c #331D0F",
"<  c #2D1D10",
"1  c #34131B",
"2  c #3A1E10",
"3  c #352218",
"4  c #282619",
"5  c #3F0F27",
"6  c #371E22",
"7  c #3C2626",
"8  c #2F302B",
"9  c #4A0D04",
"0  c #4F080E",
"q  c #530B0B",
"w  c #48130B",
"e  c #49160A",
"r  c #5C1305",
"t  c #551707",
"y  c #431D1C",
"u  c #4A1B18",
"i  c #5B1411",
"p  c #541C1B",
"a  c #531514",
"s  c #480C18",
"d  c #6B0508",
"f  c #651307",
"g  c #432107",
"h  c #5F2307",
"j  c #43281F",
"k  c #522019",
"l  c #581D2C",
"z  c #46172B",
"x  c #4A2222",
"c  c #452333",
"v  c #6C2125",
"b  c #774C46",
"n  c #AB3622",
"m  c #9B4129",
"M  c #A5422D",
"N  c #B95638",
"B  c #CF4C2B",
"V  c #DC4F2E",
"C  c #D7492B",
"Z  c #CD4D30",
"A  c #DA4B34",
"S  c #D24B35",
"D  c #C8553B",
"F  c #D5573A",
"G  c #DC533B",
"H  c #D3593B",
"J  c #DB5535",
"K  c #E54B2F",
"L  c #ED5121",
"P  c #E44E36",
"I  c #E55432",
"U  c #E05A3D",
"Y  c #D7633C",
"T  c #E56037",
"R  c #F1613E",
"E  c #814C44",
"W  c #BF5D45",
"Q  c #B6594A",
"!  c #BD5755",
"~  c #A5694A",
"^  c #B86656",
"/  c #BA644B",
"(  c #9A5D62",
")  c #B95E67",
"_  c #C54F41",
"`  c #D54E48",
"'  c #C3554C",
"]  c #C15C4C",
"[  c #C85444",
"{  c #D65443",
"}  c #D35C41",
"|  c #DB5C43",
" . c #D65649",
".. c #D15948",
"X. c #C55C53",
"o. c #D55855",
"O. c #E65946",
"+. c #E15C53",
"@. c #C9644C",
"#. c #C4634B",
"$. c #D66145",
"%. c #D96348",
"&. c #CC6254",
"*. c #CA6759",
"=. c #D3645D",
"-. c #DC6B63",
";. c #CDDBCB",
":. c #CBD5CD",
">. c #D2D3CD",
",. c #DBDECD",
"<. c #D7D8CA",
"1. c #D9CAD1",
"2. c #CAD8D4",
"3. c #D6D1D6",
"4. c #D9D3D1",
"5. c #D3DDD3",
"6. c #DCDCD6",
"7. c #DAD4DC",
"8. c #D4DBDC",
"9. c #DADBDB",
"0. c #D7D4DD",
"q. c #E3D7C9",
"w. c #E4CDD9",
"e. c #E6D5D6",
"r. c #E0DDD5",
"t. c #E3D5DB",
"y. c #EED4DA",
"u. c #E3DBDC",
"i. c #E9DCDD",
"p. c #FBD6DB",
"a. c #F4D9D9",
"s. c #DDE3D3",
"d. c #D1EBD6",
"f. c #D5E4DC",
"g. c #DCE4DA",
"h. c #D5EADB",
"j. c #DBEADE",
"k. c #D7E4D3",
"l. c #E4E4DC",
"z. c #ECE6DD",
"x. c #E4EBDD",
"c. c #EEEBDE",
"v. c #EDE8D5",
"b. c #F3E4DB",
"n. c #F3ECDC",
"m. c #F8E3DE",
"M. c #DDD4E2",
"N. c #DADCE1",
"B. c #D9D4EA",
"V. c #E9CCE8",
"C. c #E2D4E2",
"Z. c #EBD4E2",
"A. c #E5DCE3",
"S. c #EBDCE4",
"D. c #E4DBEB",
"F. c #EADEEC",
"G. c #F5DEEB",
"H. c #F9DBEA",
"J. c #EEDEF3",
"K. c #E3D4F5",
"L. c #F7DBF3",
"P. c #DCE3E4",
"I. c #DCECE4",
"U. c #DDE7E8",
"Y. c #DCF1E2",
"T. c #DAF4E9",
"R. c #DBECFC",
"E. c #E5E4E4",
"W. c #EBE4E2",
"Q. c #E4EAE5",
"!. c #EBEBE4",
"~. c #E6E5EB",
"^. c #EBE4EB",
"/. c #E4EDEB",
"(. c #ECECEB",
"). c #F3E5E3",
"_. c #FDE4E3",
"`. c #F7E9E6",
"'. c #F3E3EA",
"]. c #FBE6EB",
"[. c #F3ECEC",
"{. c #FDEBEB",
"}. c #F9ECE3",
"|. c #EDF4E3",
" X c #E7F2ED",
".X c #EBF2ED",
"XX c #E9F9EA",
"oX c #F4F2E7",
"OX c #F4F2EE",
"+X c #FCF2EB",
"@X c #F3FDEC",
"#X c #FBFFEE",
"$X c #F7F6E5",
"%X c #E6E2F0",
"&X c #E5EDF3",
"*X c #EBEAF2",
"=X c #EAE6FF",
"-X c #EBEDF9",
";X c #E4EDFC",
":X c #FDE6F2",
">X c #F3EAF3",
",X c #FCEBF3",
"<X c #F3ECFB",
"1X c #FDEDFB",
"2X c #F2E5F5",
"3X c #E7F6F3",
"4X c #EBF3F3",
"5X c #E5F9F1",
"6X c #EDFEF4",
"7X c #EEF9FA",
"8X c #E5F7FC",
"9X c #F4F4F5",
"0X c #FEF4F4",
"qX c #F3FDF4",
"wX c #FBFDF4",
"eX c #F5F3FC",
"rX c #FEF6FF",
"tX c #FCF5FC",
"yX c #F6FFFA",
"uX c #F6FFFF",
"iX c #F5FDFD",
"pX c #FAFAF9",
"aX c #FFFAF9",
"sX c #FBFEF9",
"dX c #FFFEFB",
"fX c #FDFEFA",
"gX c #FAF9FE",
"hX c #FFFBFF",
"jX c #FDF9FF",
"kX c #F9FEFE",
"lX c #FFFFFD",
"zX c #FFFDFF",
"xX c #FFFFFF",
"cX c #FDFDFE",
"vX c #FDFDFD",
/* pixels */
"eXxXwXwXxXgXjXjXpXwXwXqXjXjX= = = O rXjXrXrXtXdXwXdXrXrXrXrXdX@X",
"xX9XdXwXpXxXjXjXwXwX@X@X  ; %X-X&X/.+ O rXeXxXpXwXOXxXjX1XjXwXwX",
"wXwXdX9XkXsXaXaXpXsXdXX T.h.[.W.c.!.E.~.- xXpXqXqXqXqXxXtXxXwXwX",
"@X@XdXxX9XxXaXaXaX0X. g.d.XXl.}.n.v..X/.~.  dXsXqXqXyX.XxXdXOXwX",
"wX@XxXgXkXgXxXwX0X$ $X|.|.x..Xz.b.b.(.3X4X9X  wXwXwXwXxXtXxXdXwX",
"wXxX9XjXxXxXxXaX$ _.r.!.|.l.(.OX`.+X6././.9.+X  wXwXxXxXjXtXxXkX",
"gXxXjXtXxXtX9X@ 1X^.(.Q.9XQ.>X~.E..X(.>XE.9XS.[.X yXpXgXjXjXgXuX",
"xXxXjXjX0XdXX /.%X<X-X&XP. X(.(.Q./.(.^.>X'.:X'./.X xXtXjXgXkXiX",
"7XkXjXjXaXwXX j.*X=X;XR.T.j.+Xb.oXQ.I./.*XG.c H.*X  xXpXsXyXuXiX",
"uXqXxXrXdX  <.n.y 1 <X;X8X3Xz.}.W.Q.3X X_.x ( u [.4X  0XwX@X7XuX",
" XsXxXjXrX& q.g @.&.w {.D.-Xl.W.A.rXP.).t Q &.f a.9X% aX#X@XkXiX",
"sXwXOXxX+ 1., ~ B V W 9 :XF.9XE.>X,X].> *.%.Z #.j E.H.# +XwXkXiX",
"pXdXwXxX: w.x ^ T L R _ 0 :X^.9X*Xy.a ' A K U / 3 XX1X$ 0XdXpXuX",
"jXxXyX  C.Z.6 w D V I G *.q _.W.).p =.O.O.{ &.9 4 I.A.:X% tXxXkX",
"dXkXuXO 1.e.(.t.l ) [ | A %.e _.t ] C A Q p 5 L.8.5XQ.E.- xX9XyX",
"dXkXuXO i.i.2.-XV.z i W G J ^ r @.Z O.[ k t.K.=X&XI./..XO gXkXqX",
"aXxX  A.M.A.N.*X^.i.q.a o.` } $.G  .^ 9 y.>X>X~.Q.9XE.^.*XO dXwX",
"dXpX. 7.M.D.C.^./.Q.(.m.d o.G C P  .i p.'.^.W.[.!.!.[.*X/.X qXdX",
"6XqX& S.9.7.t.i./.6Xf.{.d ` | J I } i p.,X9Xz.n.!.Q./.5Xf.X kXjX",
"6XsX. 4.E.9.i.t.I.j.n.e ' ..&.d Z H *.a m.OXu.[.).!.h.Y.Y.  xXjX",
"kXkX  6.,.s.>.E.5Xc.h N H &.s l -.S F #.g l.eXJ.G.).qXj.(.. {.0X",
"xX4XxX@ <.s.W.4.< e N } @.q L.V.q [ A Y ~ 2 1X2X1Xi.,.|.. tXaXaX",
"9XsX9XO M.M.a.u m $.{ ! y t.J.L.H.p @.H D ^ > ].i.+X+Xn.o 9XgXxX",
"wXsXpXO B.D.6 E M n X.i 7.8X^.:XF.y.t W | ..^ u +Xu.).`.  xXkXiX",
"wXwXuX7X; 8.6.3 b u y e.Q./.!.).].'.).w ' +._ ^ 3 u.>X. dX0XjXxX",
"0XwXqXuX  9.g.8 7 Z.7.N.P.XXx.|.).'.~.w.v ! ' r a.A.eX  pXwXdXdX",
"{.aXsXkXpX  9.3.w.Z.M.0.N.:.;.k.|.x.[.,Xy.1 7 a.'.<XO uXyXqX#X$X",
",XrXpX9XxXxX  E.Z.G.C.7.Q.f.Q.5.;.k.t.>X~.P.N.7.3.+ uX6X5X6X@X#X",
"{.jXjXgXtXOXyX  u.t.t.>.h.2.0.D.8.f.8.N.3.>X3.E.. 9XdXqXqXyXpX9X",
"dXaXxXgXxXxX6XsX    4.g.d.f.F.C.P.8.P.E.A.1.+   sXdXqXpXpXxXxXjX",
"gX9XdXqX6XuXxXtXpXkX*   5.g.r.u.9.9.t.t.. + kXyXsXyXxXrXjX>XxXwX",
"uXkXwX@X6XiXrXrXxXqXqXkX    o       % # jXpXqX6XqXsX9XjXrXrXxXwX"
};
