/* XPM */
static char *_c6daebe48544f0e83117850ae61623fVptlHR4B0ElDSOLQ[] = {
/* columns rows colors chars-per-pixel */
"32 32 213 2 ",
"   c None",
".  c #6E201B",
"X  c #7A231F",
"o  c #751F27",
"O  c #512730",
"+  c #5D3035",
"@  c #682B2E",
"#  c #672829",
"$  c #7C2323",
"%  c #7B2A25",
"&  c #7B2229",
"*  c #7A2D29",
"=  c #732824",
"-  c #6D322D",
";  c #763229",
":  c #6B2C34",
">  c #652E33",
",  c #742633",
"<  c #7E2333",
"1  c #742A33",
"2  c #7A2A32",
"3  c #7D2C39",
"4  c #6C3338",
"5  c #753332",
"6  c #773838",
"7  c #72413D",
"8  c #9C1C00",
"9  c #9D1705",
"0  c #9F0912",
"q  c #8D1E17",
"w  c #891A1C",
"e  c #9D1513",
"r  c #94131D",
"t  c #9D161A",
"y  c #921D1C",
"u  c #9D1C1C",
"i  c #941A17",
"p  c #A70C07",
"a  c #AB1102",
"s  c #A41B03",
"d  c #A81C04",
"f  c #AE150A",
"g  c #A61E0B",
"h  c #AD1A0A",
"j  c #B01908",
"k  c #AB0A1B",
"l  c #B40F1D",
"z  c #B80C19",
"x  c #A21615",
"c  c #A2121D",
"v  c #AC141C",
"b  c #A41A18",
"n  c #B4141C",
"m  c #BC111C",
"M  c #B5181F",
"N  c #8C2000",
"B  c #942300",
"V  c #9C2402",
"C  c #9B2A00",
"Z  c #9B2509",
"A  c #9E3402",
"S  c #81271E",
"D  c #AD2204",
"F  c #A42800",
"G  c #B12212",
"H  c #8A1B23",
"J  c #841C25",
"K  c #961724",
"L  c #9C1A25",
"P  c #971F28",
"I  c #9B1C2C",
"U  c #991729",
"Y  c #A70E20",
"T  c #AD0E20",
"R  c #A51523",
"E  c #AC1322",
"W  c #A41B24",
"Q  c #AD1B26",
"!  c #A21D29",
"~  c #AF1829",
"^  c #AD1629",
"/  c #B21122",
"(  c #B41B24",
")  c #BB1722",
"_  c #A01B30",
"`  c #822424",
"'  c #8E2426",
"]  c #83242C",
"[  c #8D2028",
"{  c #82292C",
"}  c #8A2A2B",
"|  c #942424",
" . c #93232C",
".. c #902829",
"X. c #803127",
"o. c #822633",
"O. c #832C34",
"+. c #832B3B",
"@. c #892837",
"#. c #912330",
"$. c #823135",
"%. c #A6242E",
"&. c #B1272E",
"*. c #B22A38",
"=. c #AE303B",
"-. c #B83836",
";. c #E4281D",
":. c #C01C25",
">. c #DF1E31",
",. c #EB1C2C",
"<. c #E71D29",
"1. c #F91F30",
"2. c #CA242A",
"3. c #C02529",
"4. c #D4262B",
"5. c #DD252D",
"6. c #DA2928",
"7. c #D93629",
"8. c #C32C35",
"9. c #CD2B32",
"0. c #C92A3A",
"q. c #D42C34",
"w. c #DB2C33",
"e. c #D62D3B",
"r. c #DC2C3B",
"t. c #DE2230",
"y. c #C4363B",
"u. c #CD353B",
"i. c #C43A3B",
"p. c #CB3B3F",
"a. c #C93536",
"s. c #D73233",
"d. c #DA3235",
"f. c #D3333B",
"g. c #DB323D",
"h. c #DA3B3E",
"j. c #E52527",
"k. c #E32C27",
"l. c #EA2B25",
"z. c #E4252C",
"x. c #EB232D",
"c. c #E42B2C",
"v. c #EC2A2C",
"b. c #EC2426",
"n. c #F1232E",
"m. c #F62C2D",
"M. c #F02626",
"N. c #EC332B",
"B. c #E3312D",
"V. c #E42534",
"C. c #EC2533",
"Z. c #E42B34",
"A. c #EC2B34",
"S. c #E6263C",
"D. c #EC253A",
"F. c #E42C3A",
"G. c #ED2A3B",
"H. c #F22635",
"J. c #F22B34",
"K. c #F4243A",
"L. c #FB243C",
"P. c #F32B3B",
"I. c #F92D39",
"U. c #FC2834",
"Y. c #E33133",
"T. c #E4323C",
"R. c #EA323B",
"E. c #E73938",
"W. c #F4323B",
"Q. c #C2670C",
"!. c #873E4F",
"~. c #BF3A45",
"^. c #BD3748",
"/. c #BC3947",
"(. c #F01F46",
"). c #DE2E42",
"_. c #CC3344",
"`. c #CA3C43",
"'. c #C33A49",
"]. c #C43946",
"[. c #D43543",
"{. c #DB3341",
"}. c #D53548",
"|. c #D93A45",
" X c #E42B43",
".X c #EA2943",
"XX c #F22746",
"oX c #EB3342",
"OX c #E83548",
"+X c #F33040",
"@X c #BC434D",
"#X c #C4494A",
"$X c #C24F54",
"%X c #EEA932",
"&X c #F2AC3A",
"*X c #FAAA3B",
"=X c #F4B438",
"-X c #FC9D4D",
";X c #EE9F52",
":X c #FF9B53",
">X c #F59D53",
",X c #EFAA45",
"<X c #FFA34B",
"1X c #F9A648",
"2X c #FEB64A",
"3X c #FDAA54",
"4X c #FFA25E",
"5X c #BB878B",
"6X c #F7C1B7",
"7X c #FFEAE6",
"8X c #FFF7E8",
"9X c #FFF6F6",
"0X c #FFF1FC",
/* pixels */
"                            , ,               !.                ",
"  O 4         6 O.o         & ] @         > o.<                 ",
"  4 { X       $ ].U 3     X.u `.' $.    # ` %.K +.        6 +   ",
"  2 ].u =   $ K ).e.y   S q f.w.u.r o.  | t f.u.U <     $ } :   ",
"  o.f.d.|   I }.G.V.h.e e 3.oXC.Z.{.! r ( d.Z.T.[.P   . ! ^.,   ",
"  @.r.A.u.W k ).C.J.w.s.m T.C.C.P.t.{.n 5.A.x.Z.r.v q | _._.+.  ",
"  @.e.x.E.4.F.oXA.A.Z.V.G.>.G.A.C.W.5.c.A.J.P.C.R.2.b i.0.`.*   ",
"  < [.A.j.J.C.C.Z.Z.C.A.G.D.D.A.P.x.A.J.C.x.C.J.C.R.f.v / ~.*   ",
"  % y.Z.J.x.J.x.z.A.J.x.P.C.C.G.G.P.A.A.C.v.n.n.C.Z.g./ ~ /.*   ",
"  % &.r.A.n.A.A.G.A.<.I.C.P.J.C.D.V.C.C.J.x.J.J.C.A.g.k R @X&   ",
"  ; W r.C.J.C.V.S.D.K.K.,.x.J.A.A.G.G.G.K.L.K.,.A.Z.d.n E /.&   ",
"  - L e.Z.x.C.oX XF.G.C.K.I.v.v.j.A.Z.z.D.D.D.R.w.w.f.M E ^.{   ",
"    K g.c.m.C.V.v v s.Y.A.z.j.N.l.;.N.6.R.w.g.:.M u.a.v k '.*   ",
"    I r.v.b.H.T.g Z 8 D a d.E.c.v.l.k.7.7.D 9 g x y.&.c E =.5   ",
"     .g.A.C.K.c.C 3X*X<XA 9 l .XXXD.F.j N Q.3X:XV -.K I *.[     ",
"    H f.Z.C.K.B.B ,X=X&X;XB ) .X(.XXr.d 3X%X*X<XV -.U _ ~.J     ",
"    ` x Z.x.K.Y.V >X,X2X1XB B.G.K.V.w.D -X&X*X<X8 p.Y ^ `.[     ",
"      y h.P.C.z.h V 4X-X:XF k.n.H.G.Y.a F -X:XC G e.{.}.t {     ",
"      $ 8.Z.P.D.w.p g s d 7.K.L.,.x.P.Z.f d d f q.F.F.g.w       ",
"      # #Xz V.G.G.oXg.9.g.F.D.D.+XV.C.V.T.w.r.r.{.{.r.8.;       ",
"      @ H Q 2.R.C.V.S.OXr.r.m l T k m F.Z.G.G. XE ! '. .7       ",
"        ] ~.( 4.A.H.P.G.S. Xg.f._.}.q.Z.G.P.K..XQ w #.2         ",
"        3 H `.s.v.m.<.x.G.V.z.A.S.S.A.j.c.z.F.m c $Xo           ",
"          O.y u.k.M.U.n.C.A.x.J.C.H.x.v.J.c.G.r.p.w 5           ",
"            % i w.J.1.U.A.F.F.Z.A.z.A.x.C.H.P.r.R %             ",
"              ..f.V.K.D.f.0 ( 8.f.9.|.q.Z.A.,.oXL               ",
"              ` R g.F.OXL ] & < { { & [ x 4.W.r.                ",
"              O.L |.9.c %                 i.s.a.]               ",
"              o.! 0._.| -                 ' -.#X$.              ",
"                 .@X .=                   5 } X #               ",
"                @ 1 :                       @ -                 ",
"                                                                "
};
