/* XPM */
static char *c7cbf1ed2a8d46938fcb70fda7496ab7IdE09Q1MgFFzTYJt[] = {
/* columns rows colors chars-per-pixel */
"32 32 128 2 ",
"   c #693C1B",
".  c #6E3D1C",
"X  c #773B1F",
"o  c #135903",
"O  c #175D05",
"+  c #195F06",
"@  c #176006",
"#  c #1E6603",
"$  c #1C6305",
"%  c #1B6504",
"&  c #1E6505",
"*  c #1F6906",
"=  c #1D6408",
"-  c #216705",
";  c #216903",
":  c #216905",
">  c #226D06",
",  c #256D07",
"<  c #216808",
"1  c #236E09",
"2  c #35660B",
"3  c #237006",
"4  c #257007",
"5  c #267406",
"6  c #287106",
"7  c #2A7705",
"8  c #2D7706",
"9  c #2B7806",
"0  c #2D7A06",
"q  c #2F7F06",
"w  c #267108",
"e  c #287609",
"r  c #2D7A08",
"t  c #2F7C08",
"y  c #307606",
"u  c #307B05",
"i  c #307E06",
"p  c #387808",
"a  c #397E09",
"s  c #5C5215",
"d  c #595A14",
"f  c #70451B",
"g  c #4B6D0F",
"h  c #4A740E",
"j  c #506311",
"k  c #5A7315",
"l  c #646613",
"z  c #606316",
"x  c #8E1F26",
"c  c #911F27",
"v  c #931F28",
"b  c #8F2027",
"n  c #882426",
"m  c #812F23",
"M  c #872824",
"N  c #8B2926",
"B  c #8E2029",
"V  c #902128",
"C  c #952029",
"Z  c #9A2128",
"A  c #A32129",
"S  c #A42129",
"D  c #A0212C",
"F  c #AB222A",
"G  c #AC232B",
"H  c #AF212D",
"J  c #B6242E",
"K  c #BA232C",
"L  c #C1242D",
"P  c #C4242E",
"I  c #C8242D",
"U  c #DE2630",
"Y  c #E12631",
"T  c #E42630",
"R  c #EA2630",
"E  c #EF2732",
"W  c #EF2734",
"Q  c #EC2832",
"!  c #F02632",
"~  c #F02833",
"^  c #B95A24",
"/  c #CB7220",
"(  c #338306",
")  c #348306",
"_  c #358407",
"`  c #398104",
"'  c #388707",
"]  c #378807",
"[  c #368E04",
"{  c #398A07",
"}  c #3D8B04",
"|  c #3B8D07",
" . c #3D8D06",
".. c #338109",
"X. c #358309",
"o. c #348608",
"O. c #398008",
"+. c #378808",
"@. c #388908",
"#. c #3C8E08",
"$. c #3F9108",
"%. c #468C07",
"&. c #418C0B",
"*. c #458C08",
"=. c #548D0C",
"-. c #419003",
";. c #439107",
":. c #4A9009",
">. c #4D940A",
",. c #4F930C",
"<. c #589605",
"1. c #509A05",
"2. c #52900B",
"3. c #51980A",
"4. c #559D0B",
"5. c #559F0C",
"6. c #5C9D0B",
"7. c #6F890E",
"8. c #6F8B14",
"9. c #5EA507",
"0. c #68AB06",
"q. c #62A20D",
"w. c #66A90C",
"e. c #68A90D",
"r. c #6EAB0F",
"t. c #71AC14",
"y. c #F8B11B",
"u. c #F8B01D",
/* pixels */
"..> 7 i r 0 , * y e t.9.( t b b 7 0 - > , 9 ( b ) q , 7 0 i q 0 ",
"i b a  .i 1 4 x b b r.,.: s b b b  .+.7 = b c b N 1., i ( 0 7 o.",
"h b b m 0 + n b Q b z >.1 b V E c b { @.. V b S b @.: w 4 b b 7 ",
"b b Z b 6 0 b P E L b -.b b E E ! V b > b B E E b b 7 3 b b b g ",
"b b E b b M c ~ E E b b b U E ! E ! b b b E E E ! b _ b b E b c ",
"b b E E b b v E ~ E E b b E E E W E W b E E E E E b b b E E x b ",
"b b E E E b E E W E E E E Q ~ E E E E E E E E E E E b E E E x b ",
"k b W E E E E E ~ E E E E ~ E ~ E E E E E E E E E E E E b E b b ",
"O.b E E E E E E ! E E E E E E E ~ E E ~ E E E E E W E G b b b f ",
"& b E E E E E W E ! E E E Q E E E E E E ! Q E E E E E b b b b 2 ",
"0 b E E E E E E W E E E E E E E E E E E E E E E E E E b c b b + ",
"$.b E E E ! E E E E Q E E E W E E E E E E E W ~ E ~ E x c T b ( ",
"q b B ~ E E E E b E E E E E E W E E E E E E E E H T ! b b E x @.",
"7 x b W E E E J b b B b E E E E E E E E E W x b b V E b b E b  .",
"+   b E E E ! D b u.u.x b b E E E E E b b b / u.c b K b b E V { ",
"4 @.b E E E E P x u.u.u.u.b v E E E E b u.u.u.u.b c b b F b b _ ",
") 0 b E E E E E V y.u.u.u.b E E E E E b u.u.u.u.b T b x E b ( ) ",
"i q b U E E E E b V u.u.u.B E W E E E b b u.u.u.b E W ~ E b 4 q ",
"7 #.b b E ~ E E E b b x b B W E ! E E E V b ^ b b E E W v b & ..",
"i _ p B E A E E E E Z b E E E E E ~ E E E x b E E E ! E b j | ( ",
"` ; o.b ~ b E E E E E E E E b b b b b E E E E E E b E C b :.:.u ",
"5.2.[ x b b C Q E E E E E E E E E E E W E E E E b b E b 8.6.0 w.",
"*.%.3.4.x E c E W E ! E E E ! E E E E Q E W E R b b b b _ X.%.;.",
"0 q ( q b b E E E E ~ E E E E E E E E E E E E E F b b  .( 4 7 X.",
"( > q ) q b b E E E E E W W E E E E E W ~ ~ E E I b a 7 0 0 0 ( ",
"( 0 4 0 0 @ b b ~ E ! E E E E E ! E E ! E E E Q B b , > : 4 7 7 ",
"9 0 > 6 7 : > b E ~ E E b b b b b b b b Y W E W b <.: > & & q O ",
") & , 4 : & q b R E E E b X : 4 q { d b b E E E b e.{ > $ > +.& ",
"> > @.( 7 # _ b b E E b b ] 4 7 5 o.( 4 b b ! E b 0.{ 4 + % _ ( ",
"4 r @.7 7 ) ( b b ! b b 4 : 4 r ( i > : b b ! E c q.) 8 : & 4 ' ",
"7 7 i 9 7 7 _ b b b b l 1 o % ..#.0 4 & 7 x b b c [ q 5 t q 0 @.",
"4 7 7 7 7 : 4 4 b b 7.} 0 & : ..0 q $., q ( b b &.=.: < 9 ( q i "
};
