/* XPM */
static char *f183de1850114472f50628f683223c08kKnIBlkPj3WeXpQ7[] = {
/* columns rows colors chars-per-pixel */
"32 32 202 2 ",
"   c #010302",
".  c #0B0104",
"X  c #000C01",
"o  c #0B0B06",
"O  c #05040B",
"+  c #0C030C",
"@  c #030C0A",
"#  c #0B0B0D",
"$  c #12040C",
"%  c #1E000E",
"&  c #001302",
"*  c #001B06",
"=  c #03100A",
"-  c #13120D",
";  c #0D0711",
":  c #0A0C17",
">  c #110112",
",  c #1C0214",
"<  c #1A0C15",
"1  c #100718",
"2  c #001A12",
"3  c #0A1612",
"4  c #111016",
"5  c #2A0016",
"6  c #240219",
"7  c #2D0018",
"8  c #210214",
"9  c #634E5F",
"0  c #764C62",
"q  c #635B6B",
"w  c #705067",
"e  c #775A6C",
"r  c #7D4A75",
"t  c #815E76",
"y  c #638E74",
"u  c #64937A",
"i  c #6B937D",
"p  c #72927D",
"a  c #885B86",
"s  c #8C5783",
"d  c #946B86",
"f  c #986282",
"g  c #6F9983",
"h  c #719D8C",
"j  c #7B9C93",
"k  c #6FA083",
"l  c #7AA18C",
"z  c #7BAD91",
"x  c #73B493",
"c  c #7CB498",
"v  c #7DBEA6",
"b  c #69C49B",
"n  c #74C39C",
"m  c #7EC6A4",
"M  c #7ACDA7",
"N  c #8A9C92",
"B  c #8B939B",
"V  c #87969D",
"C  c #919690",
"Z  c #929E95",
"A  c #98999A",
"S  c #8CA28D",
"D  c #83A48F",
"F  c #95A08F",
"G  c #82A395",
"H  c #8DA491",
"J  c #85A59C",
"K  c #8DA39B",
"L  c #86A898",
"P  c #8BAD9C",
"I  c #81AC91",
"U  c #93A394",
"Y  c #9DA29E",
"T  c #92AE9C",
"R  c #98A39A",
"E  c #84B296",
"W  c #86B29A",
"Q  c #96B39D",
"!  c #A4A09F",
"~  c #919CA2",
"^  c #9E9CB1",
"/  c #A39EB2",
"(  c #8DACA5",
")  c #8FA5A2",
"_  c #92A5A2",
"`  c #98A1A0",
"'  c #9CAFA3",
"]  c #9BA9AB",
"[  c #95A9AB",
"{  c #8CBCA4",
"}  c #89B4A0",
"|  c #91B5A7",
" . c #9CB2A4",
".. c #92BDA6",
"X. c #9DB9A5",
"o. c #9CB6AC",
"O. c #9BBAA9",
"+. c #96BDAA",
"@. c #95BFB1",
"#. c #9CBAB0",
"$. c #A3A6A0",
"%. c #A2A9AA",
"&. c #A1BAA5",
"*. c #A4B5AC",
"=. c #A2BCAB",
"-. c #A9B7AC",
";. c #A5ADB2",
":. c #A2B4B4",
">. c #AEB3B6",
",. c #ACBAB3",
"<. c #A7BEB8",
"1. c #ABBBB8",
"2. c #B3B9B5",
"3. c #81C19F",
"4. c #83C3A5",
"5. c #8EC4A5",
"6. c #8CC4AB",
"7. c #8ACCA9",
"8. c #85CAAD",
"9. c #93C4AD",
"0. c #86D1B0",
"q. c #A2C2AD",
"w. c #A1C5B7",
"e. c #ABC2BC",
"r. c #B8C5BE",
"t. c #AABFC2",
"y. c #C5AACB",
"u. c #B1C5C4",
"i. c #B6D7C7",
"p. c #A9F1CD",
"a. c #B9F0D1",
"s. c #CDCFCE",
"d. c #C0D3CF",
"f. c #CDD5CB",
"g. c #C5DECF",
"h. c #C8DACC",
"j. c #CCD9D3",
"k. c #D8DBD3",
"l. c #C6E6CF",
"z. c #C9E1D7",
"x. c #DADEE7",
"c. c #F6D9F7",
"v. c #FEDBFB",
"b. c #E9C6E6",
"n. c #ECF4ED",
"m. c #E5F3E6",
"M. c #FBF8E7",
"N. c #F6F4EE",
"B. c #FAF3EF",
"V. c #F4FCED",
"C. c #F9F9ED",
"Z. c #EDE9F7",
"A. c #EFEFF9",
"S. c #F5EDF3",
"D. c #FAEFFD",
"F. c #FDEEF3",
"G. c #EBF6F3",
"H. c #EEFCF5",
"J. c #EEF7FC",
"K. c #E7FFFC",
"L. c #ECFEFD",
"P. c #E1F8F2",
"I. c #F5F4F3",
"U. c #FCF4F5",
"Y. c #F4FCF4",
"T. c #FCFDF4",
"R. c #F5F5FB",
"E. c #FDF5FC",
"W. c #F7F8FD",
"Q. c #F3FFFF",
"!. c #F4FFFF",
"~. c #F7FFFF",
"^. c #F6FFFD",
"/. c #F5FEFB",
"(. c #FEFAFA",
"). c #FBFFF9",
"_. c #F9FEFA",
"`. c #FFFFF9",
"'. c #FFFFFA",
"]. c #FDFDF9",
"[. c #FAF9FE",
"{. c #FFF9FF",
"}. c #FCFBFF",
"|. c #FFFAFF",
" X c #FFFBFF",
".X c #FFFBFE",
"XX c #FEFAFD",
"oX c #FAFFFD",
"OX c #F8FFFF",
"+X c #FAFFFF",
"@X c #FAFCFF",
"#X c #FDFDFD",
"$X c #FDFCFF",
"%X c #FFFCFF",
"&X c #FFFDFF",
"*X c #FFFDFE",
"=X c #FCFFFF",
"-X c #FDFFFF",
";X c #FFFEFF",
":X c #FEFFFF",
">X c #FEFEFD",
",X c #FDFDFD",
/* pixels */
"E.XX$XOXQ.^.oX`.(.XXXXXXXX$XT.M.`.T.^.Q.K.L./.).>X$X$XOXOX$X>XT.",
"(.XX$XOX^.^.oX`.>X$X$X[.$X$XC.T.`.>XOX^.^.^.Y.).>X$X$X$X$X$X`.T.",
"(.(.$X$X$XoX).>X>X$XZ.$XOX^.V.C.B.$X$X$XR.$XI.>X`.$XXXXXXX$X`.T.",
"(.(.$X$XOXoX).oXoXW.$X: R.OXn.`.>XU.S.XX# XX>X>X`.$XXXXX$X$X`.T.",
").).>XoX/././.oXoXOX$X[.+ U.>XT.U.XXXX. $X$XU.I.`.oX^.^.OX>XT.T.",
"Y./.oXoX/././.oXoX$XR.$X#           @   _.$X>X(.>XOX^.^.OX>X`.T.",
"/./.^.OXXX(.(.>XI.$X$X    z.q...6.9.| X   B.>XY.oX$XXXXX$XOX).Y.",
"^.OXOX$XXXE.XXXX$X>X. *.g.+.{ 6.8.4.9.O.f.- n.$XOX$XXXXX$XOX/./.",
"$X[.U.XXXXE.XXXXXX  *.g.X.& ..{ 9.9.& Q X.-.  (.R.$XQ.^.OXOXW.$X",
"E.XXXXXX[.$X[.$X$X  H =.q.T q.q.P =.&.&.X.H   $X$XR.^.L.^.$X$XXX",
"E.$XW.OX[.[.W.$X^.Y.  S S U U C $.$.U S F X G.R.$XR.$XXX$X[.$XE.",
"XX$XG.^.$XR.E.D.[.$XX & X & @ . .   X & &   $XE.E.E.U.XX[.I.$XXX",
"$XY.OX    $ 6 6 8 < N D P G V [ ~ [ P } l K < , 7 5 , .   $XI.XX",
"OXOX  h.j.. w d t + ,.G L [ B ^ / B J h { #.. d f 0 $ k.k.  >XI.",
"B.T.& l.=.  + > , + N O.e.%.y.a s b.x.o.@.j : + , $    .i.& Y./.",
"B.T.X X.-.@ XXE.E.XXX z.P.OXc.r r v.R.L.G 2 J.[.E.W.= =.O.& H.Y.",
"U.$X^.  $ < S.$X$X$X  ' i.J >.q q ;.( i.Z   _.$X$XA.: O   OX>X).",
"$X$X^.  e $ $XOXU.$X  r.L w.*.;.:.t.( T f.  N.$X$XW.1 q ; E.>XT.",
"$XR.$X+ 0 % $XG.$XB.o $.o. .,.>.;.;.r. .R   >X$XR.$X> 9 $ XXY./.",
"_.$X@   . . ^.^.(.>X  X & X     #   = X & X N.>X$X[.O + . # oXY.",
"(.  j.<.K )   n.>X>X  p g P N Y Y Z P i u X >XI.G.@ ] B u.d.X I.",
". s.1.@ 2 J _ @ I.X q.k E y &     X i z x 5.  `.3 _ _ @ @ :.f.o ",
"  2.  OXR.@ R   >X  5.7.z X `.T.>XT.& E n p.& (.  `   $X$X  ,.  ",
"    $X(.$XE.@   `.& 3.n E X `.`.(.>X  I M n X (.  X $XE.$X$X    ",
"  $X(.XX$X/.$X  ).X a.3.u & ).T.>XY.& y 7.5.X T.  ^.[.$X_.XX$X. ",
"I.>XXXXXW.^.$X).).X 4.p.E & Y.T.Y.Y.* c x 6.  >X/.^._.[.$X$X(.(.",
"Y./.$X$XE.XX$X_.>XX n b x X >X>X`.m.* c M m & I.oXOX/.W.$XOX[.$X",
"/.Y.$X(.XX(._.$XI.& 4.0.u & I.>XT.oXX u v 6.X $X$X/.oX$XR.$X_.OX",
"oXT.XXU.U.$XOXW.U.>XX ' Z o $X$X>XoX  K ,.@ I._.H.OX$XF.U.$XXXXX",
"Y.$X(.E.$XI.OX$XXXU.$ !   I.[.$X_.oX^.X A . XX$XOXOXS.XXXX(.XXXX",
"oX$X$XW.@ @ @   . . . .   # 4     .   @ + . $         # [.$XOXOX",
"oX/.H.^.Q.L.Q.OXU.E.(.. .     O +   @ @   XXXX[.OXOXoXY.OX/.^.^."
};
