/* XPM */
static char *player1741999724[] = {
/* columns rows colors chars-per-pixel */
"32 32 189 2 ",
"   c #010401",
".  c #010B00",
"X  c #021000",
"o  c #091000",
"O  c #141C00",
"+  c #181D00",
"@  c #161A0C",
"#  c #192600",
"$  c #22280E",
"%  c #293700",
"&  c #323C05",
"*  c #232C18",
"=  c #323814",
"-  c #394205",
";  c #3E4710",
":  c #354020",
">  c #3D442C",
",  c #3E4D24",
"<  c #394231",
"1  c #445700",
"2  c #40491E",
"3  c #4A531E",
"4  c #58661F",
"5  c #67771E",
"6  c #464D2C",
"7  c #585E26",
"8  c #505B33",
"9  c #546129",
"0  c #606E26",
"q  c #6D7C2B",
"w  c #6C7D3C",
"e  c #535746",
"r  c #717A4F",
"t  c #707555",
"y  c #718A14",
"u  c #77862F",
"i  c #758620",
"p  c #7D9621",
"a  c #7A8D3C",
"s  c #7E933B",
"d  c #7C8647",
"f  c #879E12",
"g  c #8BA619",
"h  c #90A910",
"j  c #92AD1E",
"k  c #98B218",
"l  c #849B25",
"z  c #899F2D",
"x  c #8B9B34",
"c  c #869538",
"v  c #8DA428",
"b  c #8AA021",
"n  c #92A823",
"m  c #9DB42F",
"M  c #9CB325",
"N  c #8EA239",
"B  c #94A93A",
"V  c #9AAE3D",
"C  c #91A633",
"Z  c #9DB433",
"A  c #A0BB23",
"S  c #A4BC2E",
"D  c #A4BB34",
"F  c #A2B73A",
"G  c #A4BA3D",
"H  c #A9BD3D",
"J  c #A1B731",
"K  c #A8C52B",
"L  c #AAC332",
"P  c #AAC238",
"I  c #B0C43C",
"U  c #B0C939",
"Y  c #B5D033",
"T  c #82864E",
"R  c #8C9449",
"E  c #98A64F",
"W  c #92A742",
"Q  c #9EB142",
"!  c #97A554",
"~  c #9EB352",
"^  c #A3B545",
"/  c #A3BA41",
"(  c #A9BD42",
")  c #AABD4C",
"_  c #A0AF5E",
"`  c #A5B355",
"'  c #AABC50",
"]  c #A6B75B",
"[  c #B2BE5D",
"{  c #8B9765",
"}  c #939B70",
"|  c #9EAB63",
" . c #A3AD6D",
".. c #AEBF66",
"X. c #A6B469",
"o. c #ADBB71",
"O. c #AEB778",
"+. c #A7B07B",
"@. c #B2BE7A",
"#. c #ACC34C",
"$. c #B1C349",
"%. c #BCD24E",
"&. c #BDD647",
"*. c #ADC15F",
"=. c #B2C453",
"-. c #BACB53",
";. c #B2C45E",
":. c #BACD5A",
">. c #B5C959",
",. c #BED353",
"<. c #BED35E",
"1. c #AEC263",
"2. c #B4C661",
"3. c #BFCF67",
"4. c #B8C768",
"5. c #B5C96C",
"6. c #BDD064",
"7. c #BCCE75",
"8. c #BDCA7A",
"9. c #BAC576",
"0. c #BFD070",
"q. c #C7DF4B",
"w. c #C0D555",
"e. c #C6DE53",
"r. c #C8DE57",
"t. c #C0D25E",
"y. c #C6DA5A",
"u. c #C8DE5B",
"i. c #CBE355",
"p. c #CCE25B",
"a. c #D8EE5D",
"s. c #C2CD6B",
"d. c #C3D663",
"f. c #C5D965",
"g. c #C9DD65",
"h. c #C1D26B",
"j. c #C5DA6A",
"k. c #CBDD6B",
"l. c #C4CC7C",
"z. c #C6D671",
"x. c #C7DA71",
"c. c #CADB73",
"v. c #C5D67D",
"b. c #C8D675",
"n. c #D1DA71",
"m. c #CBE163",
"M. c #CFE26E",
"N. c #D3E96B",
"B. c #CFE175",
"V. c #D8EE70",
"C. c #D4E476",
"Z. c #E7F86E",
"A. c #E4F767",
"S. c #E7F470",
"D. c #E0F678",
"F. c #EAF778",
"G. c #AAB786",
"H. c #BBC984",
"J. c #B8C18E",
"K. c #C1CC8B",
"L. c #C6CE85",
"P. c #CBDB81",
"I. c #CDDB8A",
"U. c #C4D188",
"Y. c #C4CF95",
"T. c #CAD495",
"R. c #D3E284",
"E. c #DCEA88",
"W. c #D9E799",
"Q. c #E3EC85",
"!. c #EDF983",
"~. c #E7F387",
"^. c #FCFF8D",
"/. c #EDED94",
"(. c #EBEF98",
"). c #EEF595",
"_. c #F3F597",
"`. c #FCFF95",
"'. c #F5FE9B",
"]. c #FDFD9C",
"[. c #F4FA96",
"{. c #CBD1A3",
"}. c #E6F4A7",
"|. c #F6FBA1",
" X c #FDFEA3",
".X c #FEFFAC",
"XX c #F6FBA9",
"oX c #FDFFB1",
"OX c None",
/* pixels */
"OXOXOXOXOXOXOXOXOXOXOXOXOXOXOXOXOXOXOXOXOXOXOXOXOXOXOXOXOXOXOXOX",
"OXOXOXOXOXOXOXOXOXOXOXOXOXOXOXOXOXOXOXOXOXOXOXOXOXOXOXOXOXOXOXOX",
"OXOXOXOXOXOXOXOXOXOXOXt d OXOXOXOXOX.. .r OXOXOXOXOXOXOXOXOXOXOX",
"OXOXOXOXOXOXOXOXOXOXOX= 9 ` ^ H J G k.}.2 OXOXOXOXOXOXOXOXOXOXOX",
"OXOXOXOXOXOXOXOXOXOXOX= & ` ( A S Z 0.W.6 OXOXOXOXOXOXOXOXOXOXOX",
"OXOXOXOXOXOXOXOXOXOXOX& E B f h k n V q = OXOXOXOXOXOXOXOXOXOXOX",
"OXOXOXOXOXOXOXOXOXOXOX[ ^ b A k A L Z Q _ OXOXOXOXOXOXOXOXOXOXOX",
"OXOXOXOXOXOXOXOXOXOXOX' F J S S L P m F >.OXOXOXOXOXOXOXOXOXOXOX",
"OXOXOXOXOXOXOXOXOXOXW.k.j.M.M.g.g.m.u.m.j.OXOXOXOXOXOXOXOXOXOXOX",
"OXOXOXOXOXOXOXOXOXOXW.c.y.n.d.M.m.m.p.y.<.P.OXOXOXOXOXOXOXOXOXOX",
"OXOXOXOXOXOXOXOXOXOXI.C.g.p.p.p.p.e.u.m.>.v.OXOXOXOXOXOXOXOXOXOX",
"OXOXOXOXOXOXOXOXOXOXO.j.m.r.r.i.e.m.D.C b.5.OXOXOXOXOXOXOXOXOXOX",
"OXOXOXOXOXOXOXOXOXOXOX8.j.u.r.r.N.j.1.v.I.OXOXOXOXOXOXOXOXOXOXOX",
"OXOXOXOXOXOXOXOXOXOXOXOX' ,.w.w.N.:.C.X.9 OXOXOXOXOXOXOXOXOXOXOX",
"OXOXOXOXOXOXOXOXOXOXOXOX=.D w.w.%.V.Q *.c OXOXOXOXOXOXOXOXOXOXOX",
"OXOXOXOXOXOXOXOXOX .H.P.M.y.H ( $.H <.B.x.0.@.OXOXOXOXOXOXOXOXOX",
"OXOXOXOXOXOXOXo.R.c.3.s.Q.C.].`.^.`.n.n.n.3.j.1.o.OXOXOXOXOXOXOX",
"OXOXOXOXOXOXOXv.z.OXOX[ XX|.]. X`.`. XR.b.1 B B.R.OXOXOXOXOXOXOX",
"OXOXOXOX8.OXOXv.OXOXOXl.oXoX].]. X]..XXX9.. % ` E.i x 8.{.OXOXOX",
"OXOXOXOX..) ~.h.OXOXOXl..X|. X].]..X|.oXL.. . 0 x.;.:.c OXOXOXOX",
"OXOXOXOXOXOXj.#.g.f.OXt.~.`. X]. X X X/.l.# y.u.) c.` - OXOXOXOX",
"OXOXOXOXOXOX:.Z &.i.u.w.!.Q._..X X_./.Q.s.=.i.i.( E.R OXOXOXOXOX",
"OXOXOXOXOXOXOXl K Y p.d.'.'._././._.F.F.y.w.q.U G 4.O.OXOXOXOXOX",
"OXOXOXOXOXK.OX5.j A P ) ~. X X|. X].S.A.U L K D Q u T.OXOXOXOXOX",
"OXOXOXOXOXU.OXOXOXg J F >.`.].`.`.F.A.N.K Z n / ..OXI.OXOXOXOXOX",
"OXOXOXOXOXL.OXOXOXZ v v x s.|.|.).E.k.C v l v p OXOX0.8.9 OXOXOX",
". OXOX5.=.-.OXOXOX/ ~ OXOXOXOXT T 7 - - % d #.y OX5.f.#.9.a OX. ",
"8 G.OXOX) Z b :.OXOXOXOXOXOXOXOXOXOXOXOXOXOXs ] 5.W C j.W 4 G., ",
"> OXY.OXE OX2.X.OXOXOXOXOXOXOXOXOXOXOXOXOXOXOXOX1.' 2.` . H.: < ",
"  OX} OX9.OXOXG.OXOXOXOXOXOXOXOXOXOXOXOXOXOXOXOXX.OXOXo.X { *   ",
". * @ OXH.2 OXe OXOXOXOXOXOXOXOXOXOXOXOXOXOXOXOX> OX3 +.o $ o . ",
"OX      O + OX  OXOXOXOXOXOXOXOXOXOXOXOXOXOXOXOX  OX+ +   OX. OX"
};
