/* XPM */
static char *ce99b8b4f5a54e36ad051de9278b8747wlKs1Aw5FYmZ20pe[] = {
/* columns rows colors chars-per-pixel */
"32 32 127 2 ",
"   c #36230A",
".  c #3A240B",
"X  c #47270E",
"o  c #49270E",
"O  c #45290E",
"+  c #4D2E0F",
"@  c #522D0E",
"#  c #442911",
"$  c #4D2C11",
"%  c #532D11",
"&  c #553113",
"*  c #5A3312",
"=  c #62260E",
"-  c #72320F",
";  c #6B2E11",
":  c #722F12",
">  c #623514",
",  c #6E3416",
"<  c #643915",
"1  c #6C3C16",
"2  c #6D3618",
"3  c #633B18",
"4  c #6D3C18",
"5  c #763112",
"6  c #713F17",
"7  c #7E3814",
"8  c #743619",
"9  c #7A371C",
"0  c #733F18",
"q  c #7C3C1A",
"w  c #714018",
"e  c #7B431C",
"r  c #803414",
"t  c #853B17",
"y  c #863C1C",
"u  c #893E1C",
"i  c #853E20",
"p  c #83421A",
"a  c #8A431C",
"s  c #8D4B1E",
"d  c #91451E",
"f  c #99451E",
"g  c #934B1E",
"h  c #9C4C1D",
"j  c #9E521F",
"k  c #A14E1D",
"l  c #A2511E",
"z  c #844323",
"x  c #924420",
"c  c #9D4622",
"v  c #934B21",
"b  c #9B4C21",
"n  c #8F5120",
"m  c #885128",
"M  c #925020",
"N  c #9E5321",
"B  c #9E5827",
"V  c #945529",
"C  c #995329",
"Z  c #93592B",
"A  c #9B5E31",
"S  c #A34C22",
"D  c #A84F24",
"F  c #A14D28",
"G  c #A45323",
"H  c #AB5423",
"J  c #A55824",
"K  c #AD5925",
"L  c #A55329",
"P  c #A25C2C",
"I  c #AB5D2A",
"U  c #B15624",
"Y  c #B55C26",
"T  c #B85F27",
"R  c #B65D29",
"E  c #B85E29",
"W  c #BD5C31",
"Q  c #B66027",
"!  c #BA6127",
"~  c #B6622A",
"^  c #BA622A",
"/  c #BE682E",
"(  c #AA6333",
")  c #B46331",
"_  c #B46A35",
"`  c #BF6930",
"'  c #B26839",
"]  c #BD6D38",
"[  c #B3713D",
"{  c #C1642B",
"}  c #C1632D",
"|  c #C0652C",
" . c #C66434",
".. c #C86433",
"X. c #C86635",
"o. c #C06A31",
"O. c #C16B32",
"+. c #C26B32",
"@. c #C26C33",
"#. c #C36D34",
"$. c #C46F36",
"%. c #C96C31",
"&. c #CD6C35",
"*. c #CD6D35",
"=. c #C67236",
"-. c #C6743A",
";. c #C3743C",
":. c #C7763F",
">. c #CA763A",
",. c #CB793D",
"<. c #CC7A3E",
"1. c #D27236",
"2. c #D57336",
"3. c #D87438",
"4. c #D97539",
"5. c #DD7B3E",
"6. c #C47441",
"7. c #CF7F42",
"8. c #D07F40",
"9. c #D27E43",
"0. c #DE7E41",
"q. c #D1803F",
"w. c #D08043",
"e. c #D18144",
"r. c #DC8445",
"t. c #E18343",
"y. c #E18345",
/* pixels */
"c ^ n w ^ T k c 9 $ c G 1 q y H S ^ v w ! Q S c q $ c G 6 q y H ",
"^ w.w.8.7./ T 7.^ ,.T T T Q T _ ' ,.` e.w.` ,.w.^ q.7.@.Q T ,.^ ",
"Y G U K U U G K Y U Y K Y T ^ h h G U K U K G K R U Y H Y ^ T T ",
"Y h b p H D f D U q U D s J T H J h b p K D f D Y q { R v G T T ",
"G T s 1 T Q T T K # D U 1 p Y T G T s 1 T T T T U $ ..&.e p Y T ",
"$ * + O * * * * &   $ % O X * * @ * + O * * * * *   * > O X * * ",
"j N N G N & B ~ ~ L ~ e 2 N N N N N N N N & s   N a N 1 1 N N N ",
"f 8 a b b * z 1.2.W &.e e d K G f 8 a b v * 8 K Y S K , e x K G ",
"Y Y Y Y $./ Y T Y Y Y Y Y Y k h h k Y Y Y T Y T Y Y Y Y Y Y T Y ",
"y y y y v N a N y y y d d y p 5 : 5 y y g N a N y y y d d y b u ",
"* * + # * * * * * . * * O + * * * * + O * * * * *   * * O + * * ",
"R b s 1 T K b b v X G b * s S b R S s 1 T s g b v X G b * p b b ",
"-.( I ( >.] C C V m ) L A I ( b %.6.;.) r.[ C h ( Z G b a j b ( ",
"@./ ^ o.@.#.J G J K / ^ @.^ o.^ 3.y.0.5.t.t.| T @./ T T T E T @.",
"! Y D T H U k h ; h Y T H U ^ G 3.1. .3.X.&.^ T y Q E T G U T G ",
"T T s 6 Y R T Y K + T T 4 g T R ^ ^ v 0 ^ ^ T T K + h h > v T Y ",
"c ^ g w ^ ^ S c 9 + c G w y y G c ^ M w T T S c q + t d < q i H ",
"^ 8.,.w.8.<.^ ~ E ^ w.w.@.>.^ T Q ^ 8.=.T T ,.w.e.w.w.,.<.o.,.^ ",
"Y G U H Y U G K Y U Y U Y T ^ T Y G U K Y U G K Y U Y U Y T T T ",
"Y h h q k f u f J q U G s J T T R c h p K D f D U q } R v J T T ",
"G T s * h h h h g X D U 1 p Y T G E s 1 T T T E K $  .&.e p Y T ",
"% * + . @ @ @ @ @   % % O o * * % * + O * * * * *   * > O X * * ",
"N N N N N % s N N a N 4 1 N G N a a p p a + s N N a N 1 2 N G N ",
"c 8 a b h * 2 Y Y S U , e a K G r = - t 7 @ 8 Y Y S U , e d K G ",
"e.Y Y Y Y T T T Y Y Y Y Y Y 1.2.2.&.Y Y Y T Y T Y Y Y E Y Y T R ",
"y y y y g N a N y y y d d y I F b b y y v N a N y y y d d y b u ",
"* * + O 3 3 3 3 < . * * O + * * * * + O * * * * * . * * O + * * ",
"Y N s e 3.%.) ) I X G b * s b h Y G s 4 T H b b v X G b * p b h ",
"Q G ~ P 8.:.' L ' Z G b V _ G b Q ( I ( ` ) P a a e G b a b b b ",
"^ ^ / ^ @.o.o.^ @./ T T ^ o.^ T ^ o.^ o.^ / I h h l T T T T T T ",
"T Y D T G U E T y Q T T H U T G T Y D Y H U k h ; l T T G U E G ",
"T T s 6 Y Y E T K + T T 4 v T R T T s 1 Y Y ! Y K + T T 4 s Y Y "
};
